<svg id="Layer_1" data-name="Layer 1" xmlns="http://www.w3.org/2000/svg" xmlns:xlink="http://www.w3.org/1999/xlink" viewBox="0 0 1400 456.81"><defs><style>.cls-1{fill:url(#linear-gradient);}.cls-2{fill:#fff;}</style><linearGradient id="linear-gradient" x1="493.98" y1="60.52" x2="-66.54" y2="453.26" gradientUnits="userSpaceOnUse"><stop offset="0" stop-color="#b47a1a"/><stop offset="0.05" stop-color="#b9811e"/><stop offset="0.13" stop-color="#c69429"/><stop offset="0.22" stop-color="#dcb33c"/><stop offset="0.32" stop-color="#fade56"/><stop offset="0.33" stop-color="#ffe55a"/><stop offset="0.52" stop-color="#ffec88"/><stop offset="0.66" stop-color="#ffe55a"/><stop offset="1" stop-color="#b47a1a"/></linearGradient></defs><path class="cls-1" d="M253.54,40.71c-2.62-.53-5.22-1-7.82-1.41a174.74,174.74,0,0,1,80.84,293.33V206.21l-4.6-2.4V337c-1.27,1.17-2.55,2.33-3.86,3.45V200l-4.6-2.39V344.37c-1,.84-2.07,1.65-3.1,2.46V195.3l-4.62-2.4V350.28c-1.6,1.17-3.21,2.31-4.84,3.39V188.18L272,213.08V369.44c-1.65.72-3.32,1.41-5,2.05V137l-8.36-4.35v242h0q-3.47,1.15-7,2.19h0V125.69l-8.35-4.34V378.92h0c-1.86.45-3.76.86-5.63,1.24v-263l-8.36-4.35V381.63c-2.79.41-5.61.77-8.43,1.05h0V97.11L168.3,143.84V209l42.3,26V383.4c-2.34.1-4.7.15-7.06.15V239.3L195.18,235V383.35h0c-2.32-.11-4.65-.26-7-.48h0V228.05l-8.36-4.34V381.92c-1.87-.24-3.75-.52-5.63-.86V219.53l-8.35-4.35V379.45c-3-.65-5.9-1.38-8.79-2.17V206.6l-52.53,27.28V353A174.79,174.79,0,0,1,30.75,181.25c-.64,2.55-1.22,5.16-1.77,7.77A190.18,190.18,0,0,0,157,408.32q4.34,1.4,8.79,2.58c2.75.75,5.55,1.43,8.35,2,1,.24,2.06.46,3.09.67a189.44,189.44,0,0,0,81.36-1.07h0c2.81-.65,5.6-1.38,8.35-2.15h0c1.69-.49,3.36-1,5-1.5a187.46,187.46,0,0,0,28.94-11.72c1.62-.81,3.24-1.66,4.84-2.53s3.1-1.69,4.62-2.57c1-.6,2.08-1.21,3.1-1.83q2.33-1.39,4.6-2.86c1.31-.83,2.59-1.67,3.86-2.53,1.55-1.05,3.09-2.12,4.6-3.21A189.56,189.56,0,0,0,401.85,265.3C422.91,162.35,356.53,61.79,253.54,40.71Z"/><path class="cls-2" d="M506.48,204.46a25.74,25.74,0,0,1-13,3h-8.32c-16,0-23.27-10.56-23.15-26l.11-10.9c.11-14.84,10.9-21.24,23-21.24h15.73v-1.91l16-3.82v40.23c0,7.08,3.15,10.57,9.44,10.57h6.07v16.29h-9C515.58,210.75,510,208.62,506.48,204.46Zm-33.26-78.78h14V139.5h-14Zm11.12,65.52h9.11q7.41,0,7.41-7.76V165.68H485.13c-5.06,0-7.64,2.59-7.64,7.65v10C477.49,188.61,479.73,191.2,484.34,191.2Zm7.76-65.52h14V139.5h-14Z"/><path class="cls-2" d="M529,194.46h37.88v16.29H529Z"/><path class="cls-2" d="M563.24,217.94h14v13.83h-14Zm.22-23.48h11q9.78,0,9.78-9.45V164l15.62-9.33v28.88c0,18.1-8.54,27.2-25.74,27.2H563.46Zm18.66,23.48h14v13.83h-14Z"/><path class="cls-2" d="M610.1,217.27h3.15q9.78,0,9.78-9.44V164.34l15.84-9.56v52.49c0,18.09-8.54,27.19-25.73,27.19h-6.52Z"/><path class="cls-2" d="M652.58,183.55V131.18l15.63,9.33V185q0,9.45,9.77,9.45h7.08v16.29h-6.74C661.13,210.75,652.58,201.65,652.58,183.55Z"/><path class="cls-2" d="M681.69,194.46h11.47a46,46,0,0,1-1.24-11.24c0-11.69,1.35-18.66,6.29-24.39,4.72-5.73,11-8,21.81-8,15.51,0,25.73,7.87,25.73,26.86v16.75h14.16v16.29H681.69Zm21.81-63.84h14v13.82h-14Zm13.71,63.84h12.58V177.71c0-8-3.93-9.89-12.13-9.89q-9.78,0-9.78,9.78v6.29C707.88,191,710.91,194.46,717.21,194.46Zm5.17-63.84h14v13.82h-14Z"/><path class="cls-2" d="M800.37,205.81c-6.74,3.26-14.61,4.94-23.82,4.94h-20V194.46h30.68c-7.08-8-17.53-17.09-18-17.54l-1.12-1A102.2,102.2,0,0,1,771,159.39a56.71,56.71,0,0,1,29.78-8.76c15.85,0,31.25,5.61,31.25,20.79a17.73,17.73,0,0,1-1.58,7.53c-.45,2.13-3.48,7.86-12.47,15.51h28.09v16.29H819.93C811.27,210.75,804.76,208.84,800.37,205.81Zm1.8-16.19c5.73-3.37,12.25-8.54,12.25-16.18,0-3.48-3.37-8.43-13.6-8.43-9.33,0-14.27,2.59-17.31,4.72A80.85,80.85,0,0,1,802.17,189.62Z"/><path class="cls-2" d="M842.75,194.46h4.72q9.76,0,9.77-9.45v-44.5l15.62-9.33v52.37c0,18.1-8.54,27.2-25.73,27.2h-4.38Z"/><path class="cls-2" d="M886.58,140.62l15.84-9.55v79.68H886.58Z"/><path class="cls-2" d="M946.48,229.41c-10.91-2.93-16.3-11.47-16.3-25.63.34-18.54,10-26.18,30.12-26.18l-2.7,15.84c-7.42,0-11.12,2.36-11.35,11.58.11,6.63,3.37,9.89,9.78,9.89h20.9c6.52,0,9.78-3.26,9.78-9.89V140.4l16-9.33v63.39h12.25v16.29h-12.25c-.45,10.9-7.08,20.46-22.25,20.46H959.29A46,46,0,0,1,946.48,229.41Z"/><path class="cls-2" d="M1011.55,194.46h37.87v16.29h-37.87Z"/><path class="cls-2" d="M1046.05,194.46h9.33q9.78,0,9.78-9.45V164l15.62-9.33v28.88a40.21,40.21,0,0,1-1.35,10.91h16.41v16.29h-49.79Zm5.28,23.48h14.05v13.83h-14.05Zm18.88,0h14v13.83h-14Z"/><path class="cls-2" d="M1092.47,194.46h5.06q9.77,0,9.77-9.45V140.4l15.62-9.33v52.48a40.63,40.63,0,0,1-1.34,10.91h11.8v16.29h-40.91Z"/><path class="cls-2" d="M1130,194.46h15.5a38.73,38.73,0,0,1-.89-8.32v-7.53c0-12.59,5.16-21.69,14.27-24.39,2.36-7.87,6.4-12.14,14.72-14.61a89.5,89.5,0,0,1,18.77-1.68c8,0,12.81.78,17.53,4.94,6.18,6.18,6.86,13.71,6.86,22.14v29.45h13.82v16.29H1130Zm35.4,0h10.9V177.37c0-6.52-2.47-8.2-8.66-8.2-5.05,0-7.53,2.36-7.53,7.19v10.23C1160.12,191.2,1161.92,193.89,1165.41,194.46Zm26.41-17.09v17.09h9.1V164.9c0-6.86-3-10.23-9.22-10.23-6.85,0-10.78.11-11.57.34C1188,158.27,1191.82,165.8,1191.82,177.37Z"/><path class="cls-2" d="M1227.22,194.46h37.87v16.29h-37.87Z"/><path class="cls-2" d="M1261.72,194.46h9.33q9.78,0,9.78-9.45V164l15.62-9.33v28.88a40.21,40.21,0,0,1-1.35,10.91h16.41v16.29h-49.79Zm10.45-60.36h14v13.83h-14Zm18.89,0h14v13.83h-14Z"/><path class="cls-2" d="M1308.14,194.46h4.72q9.78,0,9.78-9.45v-44.5l15.62-9.33v52.37c0,18.1-8.54,27.2-25.74,27.2h-4.38Z"/><path class="cls-2" d="M1352,140.62l15.85-9.55v79.68H1352Z"/><path class="cls-2" d="M493.37,313.33l-19.76-.43-5.19,14.74-13.55,1.87L479,264.69h10l23.42,64.82-13.8-1.87ZM490,302.09l-6.39-18.4-6.47,18.4Z"/><path class="cls-2" d="M520.72,266.05l12.35,2.13v61.33H520.72Z"/><path class="cls-2" d="M546.27,301h38.85v10.73H546.27Z"/><path class="cls-2" d="M614.5,276.7H599.6l-2.22-12h47.11l-2.22,12H627.36v52.81H614.5Z"/><path class="cls-2" d="M653.86,316.31c0-10.9,10.81-18.4,26.4-18.4h.26c0-5.19-2.39-7.07-7.16-7.07s-8.86,1.54-15.93,4.26l.34-10.56c6.73-2.81,12-4.43,17.81-4.43,10.56,0,17.2,6.13,17.2,17.55v31.85H680.43V326.7a22.09,22.09,0,0,1-12,3.41C659.73,330.11,653.86,324.49,653.86,316.31Zm17,2.9a13.9,13.9,0,0,0,9.63-3.84v-7.75h-.6c-8.26,0-14.14,3.92-14.14,7.92C665.78,318.53,668.59,319.21,670.89,319.21Z"/><path class="cls-2" d="M724.81,293c-3,0-6.47,1.37-10,4.09v32.45H702.5V266.05l12.26,2.13v15.76A24.14,24.14,0,0,1,727,280.71c9.37,0,15.67,5.79,15.67,16.61v32.19H730.43V299.45C730.43,294.34,728.22,293,724.81,293Z"/><path class="cls-2" d="M753.35,266.05l12.35,2.13v61.33H753.35Z"/><path class="cls-2" d="M775.75,304.81c0-15.76,8.44-25.64,22.06-25.64,11.5,0,19.25,8.52,19.25,22.83a43.89,43.89,0,0,1-.42,6.56H788.53c.85,7.16,4.34,10.48,12.44,10.48,6.13,0,8.43-.86,13.37-2.64l3.49,10.05-2.56.93a39.11,39.11,0,0,1-15.5,2.73C784.27,330.11,775.75,320.83,775.75,304.81Zm29.47-6.22c-.76-5.53-3.49-8.86-7.58-8.86-6,0-8.17,4.52-8.94,8.86Z"/><path class="cls-2" d="M828.9,304.81c0-15.76,8.44-25.64,22.07-25.64,11.5,0,19.25,8.52,19.25,22.83a43.94,43.94,0,0,1-.43,6.56H841.68c.85,7.16,4.35,10.48,12.44,10.48,6.13,0,8.43-.86,13.37-2.64L871,326.45l-2.55.93a39.18,39.18,0,0,1-15.51,2.73C837.42,330.11,828.9,320.83,828.9,304.81Zm29.48-6.22c-.77-5.53-3.5-8.86-7.58-8.86-6,0-8.18,4.52-8.95,8.86Z"/><path class="cls-2" d="M882,266.05l12.35,2.13v61.33H882Z"/><path class="cls-2" d="M942.62,305.75h-9.54v23.76H920.22V264.69h26.32c12.35,0,20.53,8.44,20.53,20.53,0,8.77-4.09,15.5-11.16,18.4l15.33,25.89H956.42Zm3.32-12.1c5.37,0,8.26-2.89,8.26-8.43,0-5.2-3.23-8.52-8.26-8.52H933.08v16.95Z"/><path class="cls-2" d="M976.1,304.81c0-15.76,8.43-25.64,22.06-25.64,11.5,0,19.25,8.52,19.25,22.83a42.65,42.65,0,0,1-.43,6.56H988.87c.86,7.16,4.35,10.48,12.44,10.48,6.13,0,8.43-.86,13.37-2.64l3.5,10.05-2.56.93a39.11,39.11,0,0,1-15.5,2.73C984.62,330.11,976.1,320.83,976.1,304.81Zm29.47-6.22c-.77-5.53-3.49-8.86-7.58-8.86-6,0-8.18,4.52-8.94,8.86Z"/><path class="cls-2" d="M1029.08,316.31c0-10.9,10.82-18.4,26.41-18.4h.25c0-5.19-2.38-7.07-7.15-7.07s-8.86,1.54-15.93,4.26l.34-10.56c6.73-2.81,12-4.43,17.8-4.43,10.56,0,17.21,6.13,17.21,17.55v31.85h-12.35V326.7a22.14,22.14,0,0,1-12,3.41C1035,330.11,1029.08,324.49,1029.08,316.31Zm17,2.9a13.86,13.86,0,0,0,9.62-3.84v-7.75h-.59c-8.27,0-14.14,3.92-14.14,7.92C1041,318.53,1043.82,319.21,1046.12,319.21Z"/><path class="cls-2" d="M1079.17,266.05l12.35,2.13v61.33h-12.35Z"/><path class="cls-2" d="M1117.41,264.69h42.34l-1.88,12h-27.59v13.21H1154l2,12h-25.63v15.5h28l1.87,12.09h-42.76Z"/><path class="cls-2" d="M1169,327.3V316.23c7.67,2.81,12.27,4.08,17.47,4.08,7.32,0,7.66-3.49,7.66-4.25,0-2.22-2.81-3.33-8.69-5.29-6.21-2.13-15.5-5.19-15.5-15.33,0-9.37,7.5-15.42,20-15.42,7,0,11,1.45,16.61,3.67v11.24c-8.43-3.41-11.59-4.09-15.08-4.09-5.11,0-8.35,1.79-8.35,4.09s2.9,3.41,9.12,5.54A34,34,0,0,1,1202,305a12.74,12.74,0,0,1,5.45,10.56c0,9.2-7.67,15.59-19.68,15.59C1180.45,331.13,1175.85,329.94,1169,327.3Z"/><path class="cls-2" d="M1220,317.5V292.8h-4.26l-2.38-10.73H1220V269.21l12.27,2.13v10.73h10.3l-2.47,10.73h-7.83v24.11c0,2.3.76,2.72,2.38,2.72a11.85,11.85,0,0,0,3-.34l3.92-1.87v11.84a44.81,44.81,0,0,1-9.45,1.11C1224.23,330.37,1220,326.11,1220,317.5Z"/><path class="cls-2" d="M1250.89,316.31c0-10.9,10.82-18.4,26.41-18.4h.25c0-5.19-2.38-7.07-7.15-7.07s-8.86,1.54-15.93,4.26l.34-10.56c6.73-2.81,12-4.43,17.8-4.43,10.57,0,17.21,6.13,17.21,17.55v31.85h-12.35V326.7a22.11,22.11,0,0,1-12,3.41C1256.77,330.11,1250.89,324.49,1250.89,316.31Zm17,2.9a13.86,13.86,0,0,0,9.62-3.84v-7.75H1277c-8.26,0-14.14,3.92-14.14,7.92C1262.82,318.53,1265.63,319.21,1267.93,319.21Z"/><path class="cls-2" d="M1302.6,317.5V292.8h-4.26L1296,282.07h6.64V269.21l12.27,2.13v10.73h10.3l-2.47,10.73h-7.83v24.11c0,2.3.76,2.72,2.38,2.72a11.85,11.85,0,0,0,3-.34l3.92-1.87v11.84a44.83,44.83,0,0,1-9.46,1.11C1306.86,330.37,1302.6,326.11,1302.6,317.5Z"/><path class="cls-2" d="M1332.84,304.81c0-15.76,8.43-25.64,22.06-25.64,11.5,0,19.25,8.52,19.25,22.83a43.89,43.89,0,0,1-.42,6.56h-28.11c.85,7.16,4.34,10.48,12.43,10.48,6.14,0,8.43-.86,13.38-2.64l3.49,10.05-2.56.93a39.11,39.11,0,0,1-15.5,2.73C1341.36,330.11,1332.84,320.83,1332.84,304.81Zm29.47-6.22c-.76-5.53-3.49-8.86-7.58-8.86-6,0-8.18,4.52-8.94,8.86Z"/></svg>