<svg id="Layer_1" data-name="Layer 1" xmlns="http://www.w3.org/2000/svg" xmlns:xlink="http://www.w3.org/1999/xlink" viewBox="0 0 1400 456.81"><defs><style>.cls-1{fill:url(#linear-gradient);}</style><linearGradient id="linear-gradient" x1="493.46" y1="60.52" x2="-67.06" y2="453.26" gradientUnits="userSpaceOnUse"><stop offset="0" stop-color="#b47a1a"/><stop offset="0.05" stop-color="#b9811e"/><stop offset="0.13" stop-color="#c69429"/><stop offset="0.22" stop-color="#dcb33c"/><stop offset="0.32" stop-color="#fade56"/><stop offset="0.33" stop-color="#ffe55a"/><stop offset="0.52" stop-color="#ffec88"/><stop offset="0.66" stop-color="#ffe55a"/><stop offset="1" stop-color="#b47a1a"/></linearGradient></defs><path class="cls-1" d="M253,40.71c-2.62-.53-5.22-1-7.82-1.41A174.74,174.74,0,0,1,326,332.63V206.21l-4.6-2.4V337c-1.28,1.17-2.55,2.33-3.86,3.45V200l-4.6-2.39V344.37c-1,.84-2.07,1.65-3.1,2.46V195.3l-4.62-2.4V350.28c-1.61,1.17-3.21,2.31-4.85,3.39V188.18l-28.93,24.9V369.44c-1.65.72-3.33,1.41-5,2.05V137l-8.36-4.35v242h0c-2.31.77-4.66,1.5-7,2.19h0V125.69l-8.35-4.34V378.92h0c-1.85.45-3.75.86-5.62,1.24v-263l-8.36-4.35V381.63c-2.79.41-5.61.77-8.44,1.05h0V97.11l-52.53,46.73V209l42.29,26V383.4q-3.51.15-7,.15V239.3L194.66,235V383.35h0c-2.32-.11-4.65-.26-7-.48h0V228.05l-8.36-4.34V381.92c-1.87-.24-3.75-.52-5.63-.86V219.53l-8.35-4.35V379.45c-3-.65-5.9-1.38-8.79-2.17V206.6L104,233.88V353A174.79,174.79,0,0,1,30.23,181.25c-.64,2.55-1.22,5.16-1.78,7.77a190.2,190.2,0,0,0,128.07,219.3q4.33,1.4,8.79,2.58c2.75.75,5.54,1.43,8.35,2,1,.24,2.05.46,3.09.67a189.44,189.44,0,0,0,81.36-1.07h0c2.81-.65,5.6-1.38,8.35-2.15h0c1.68-.49,3.36-1,5-1.5a187,187,0,0,0,28.93-11.72c1.62-.81,3.24-1.66,4.85-2.53s3.1-1.69,4.62-2.57c1-.6,2.08-1.21,3.1-1.83q2.32-1.39,4.6-2.86c1.31-.83,2.58-1.67,3.86-2.53q2.32-1.58,4.6-3.21A189.56,189.56,0,0,0,401.33,265.3C422.39,162.35,356,61.79,253,40.71Z"/><path d="M507,204.46a25.71,25.71,0,0,1-13,3h-8.32c-16,0-23.26-10.56-23.15-26l.11-10.9c.11-14.84,10.9-21.24,23-21.24h15.73v-1.91l16-3.82v40.23c0,7.08,3.15,10.57,9.44,10.57h6.07v16.29h-9C516.11,210.75,510.49,208.62,507,204.46Zm-33.26-78.78h14V139.5h-14Zm11.12,65.52H494q7.41,0,7.41-7.76V165.68H485.65c-5.06,0-7.64,2.59-7.64,7.65v10C478,188.61,480.26,191.2,484.86,191.2Zm7.76-65.52h14.05V139.5H492.62Z"/><path d="M529.48,194.46h37.88v16.29H529.48Z"/><path d="M563.76,217.94h14v13.83h-14Zm.23-23.48h11q9.78,0,9.78-9.45V164l15.62-9.33v28.88c0,18.1-8.54,27.2-25.74,27.2H564Zm18.65,23.48h14.05v13.83H582.64Z"/><path d="M610.62,217.27h3.15q9.78,0,9.78-9.44V164.34l15.85-9.56v52.49c0,18.09-8.55,27.19-25.74,27.19h-6.52Z"/><path d="M653.11,183.55V131.18l15.62,9.33V185q0,9.45,9.78,9.45h7.07v16.29h-6.74C661.65,210.75,653.11,201.65,653.11,183.55Z"/><path d="M682.21,194.46h11.47a46,46,0,0,1-1.24-11.24c0-11.69,1.35-18.66,6.3-24.39,4.72-5.73,11-8,21.8-8,15.51,0,25.73,7.87,25.73,26.86v16.75h14.16v16.29H682.21ZM704,130.62h14.05v13.82H704Zm13.71,63.84h12.59V177.71c0-8-3.94-9.89-12.14-9.89q-9.78,0-9.78,9.78v6.29C708.4,191,711.43,194.46,717.73,194.46Zm5.17-63.84H737v13.82H722.9Z"/><path d="M800.89,205.81c-6.74,3.26-14.61,4.94-23.82,4.94h-20V194.46h30.69c-7.09-8-17.54-17.09-18-17.54l-1.12-1a103.31,103.31,0,0,1,2.92-16.52,56.71,56.71,0,0,1,29.78-8.76c15.85,0,31.25,5.61,31.25,20.79A17.73,17.73,0,0,1,831,179c-.45,2.13-3.48,7.86-12.47,15.51h28.09v16.29H820.45C811.8,210.75,805.28,208.84,800.89,205.81Zm1.8-16.19c5.73-3.37,12.25-8.54,12.25-16.18,0-3.48-3.37-8.43-13.6-8.43-9.32,0-14.27,2.59-17.3,4.72A81,81,0,0,1,802.69,189.62Z"/><path d="M843.27,194.46H848q9.76,0,9.77-9.45v-44.5l15.63-9.33v52.37c0,18.1-8.55,27.2-25.74,27.2h-4.38Z"/><path d="M887.1,140.62l15.84-9.55v79.68H887.1Z"/><path d="M947,229.41c-10.9-2.93-16.3-11.47-16.3-25.63.34-18.54,10-26.18,30.12-26.18l-2.7,15.84c-7.41,0-11.12,2.36-11.35,11.58.12,6.63,3.37,9.89,9.78,9.89h20.9c6.52,0,9.78-3.26,9.78-9.89V140.4l16-9.33v63.39h12.25v16.29h-12.25c-.45,10.9-7.08,20.46-22.25,20.46H959.81A46,46,0,0,1,947,229.41Z"/><path d="M1012.07,194.46h37.87v16.29h-37.87Z"/><path d="M1046.57,194.46h9.33q9.78,0,9.78-9.45V164l15.62-9.33v28.88a40.21,40.21,0,0,1-1.35,10.91h16.41v16.29h-49.79Zm5.28,23.48h14.05v13.83h-14.05Zm18.89,0h14v13.83h-14Z"/><path d="M1093,194.46h5.06q9.77,0,9.77-9.45V140.4l15.63-9.33v52.48a40.21,40.21,0,0,1-1.35,10.91h11.8v16.29H1093Z"/><path d="M1130.53,194.46H1146a38.09,38.09,0,0,1-.9-8.32v-7.53c0-12.59,5.17-21.69,14.27-24.39,2.36-7.87,6.41-12.14,14.72-14.61a89.5,89.5,0,0,1,18.77-1.68c8,0,12.81.78,17.53,4.94,6.18,6.18,6.86,13.71,6.86,22.14v29.45h13.82v16.29H1130.53Zm35.4,0h10.9V177.37c0-6.52-2.47-8.2-8.65-8.2-5.06,0-7.53,2.36-7.53,7.19v10.23C1160.65,191.2,1162.44,193.89,1165.93,194.46Zm26.41-17.09v17.09h9.1V164.9c0-6.86-3-10.23-9.21-10.23-6.86,0-10.79.11-11.58.34C1188.52,158.27,1192.34,165.8,1192.34,177.37Z"/><path d="M1227.74,194.46h37.88v16.29h-37.88Z"/><path d="M1262.24,194.46h9.33q9.78,0,9.78-9.45V164l15.62-9.33v28.88a40.21,40.21,0,0,1-1.35,10.91H1312v16.29h-49.79Zm10.46-60.36h14v13.83h-14Zm18.88,0h14v13.83h-14Z"/><path d="M1308.66,194.46h4.72q9.78,0,9.78-9.45v-44.5l15.62-9.33v52.37c0,18.1-8.54,27.2-25.74,27.2h-4.38Z"/><path d="M1352.49,140.62l15.85-9.55v79.68h-15.85Z"/><path d="M493.9,313.33l-19.76-.43-5.2,14.74-13.54,1.87,24.1-64.82h10l23.42,64.82-13.8-1.87Zm-3.41-11.24-6.39-18.4-6.47,18.4Z"/><path d="M521.24,266.05l12.35,2.13v61.33H521.24Z"/><path d="M546.79,301h38.85v10.73H546.79Z"/><path d="M615,276.7h-14.9l-2.22-12H645l-2.22,12h-14.9v52.81H615Z"/><path d="M654.38,316.31c0-10.9,10.82-18.4,26.4-18.4H681c0-5.19-2.39-7.07-7.16-7.07S665,292.38,658,295.1l.34-10.56c6.73-2.81,12-4.43,17.8-4.43,10.56,0,17.2,6.13,17.2,17.55v31.85H681V326.7a22.09,22.09,0,0,1-12,3.41C660.26,330.11,654.38,324.49,654.38,316.31Zm17,2.9a13.89,13.89,0,0,0,9.63-3.84v-7.75h-.6c-8.26,0-14.14,3.92-14.14,7.92C666.3,318.53,669.11,319.21,671.41,319.21Z"/><path d="M725.33,293c-3,0-6.47,1.37-10.05,4.09v32.45H703V266.05l12.26,2.13v15.76a24.14,24.14,0,0,1,12.27-3.23c9.37,0,15.67,5.79,15.67,16.61v32.19H731V299.45C731,294.34,728.74,293,725.33,293Z"/><path d="M753.87,266.05l12.35,2.13v61.33H753.87Z"/><path d="M776.27,304.81c0-15.76,8.44-25.64,22.07-25.64,11.49,0,19.25,8.52,19.25,22.83a43.94,43.94,0,0,1-.43,6.56H789.05c.85,7.16,4.34,10.48,12.44,10.48,6.13,0,8.43-.86,13.37-2.64l3.49,10.05-2.55.93a39.18,39.18,0,0,1-15.51,2.73C784.79,330.11,776.27,320.83,776.27,304.81Zm29.47-6.22c-.76-5.53-3.49-8.86-7.58-8.86-6,0-8.17,4.52-8.94,8.86Z"/><path d="M829.43,304.81c0-15.76,8.43-25.64,22.06-25.64,11.5,0,19.25,8.52,19.25,22.83a43.94,43.94,0,0,1-.43,6.56H842.2c.85,7.16,4.35,10.48,12.44,10.48,6.13,0,8.43-.86,13.37-2.64l3.49,10.05-2.55.93a39.11,39.11,0,0,1-15.5,2.73C837.94,330.11,829.43,320.83,829.43,304.81Zm29.47-6.22c-.77-5.53-3.49-8.86-7.58-8.86-6,0-8.18,4.52-9,8.86Z"/><path d="M882.49,266.05l12.36,2.13v61.33H882.49Z"/><path d="M943.14,305.75H933.6v23.76H920.74V264.69h26.32c12.35,0,20.53,8.44,20.53,20.53,0,8.77-4.09,15.5-11.16,18.4l15.33,25.89H956.94Zm3.32-12.1c5.37,0,8.27-2.89,8.27-8.43,0-5.2-3.24-8.52-8.27-8.52H933.6v16.95Z"/><path d="M976.62,304.81c0-15.76,8.43-25.64,22.06-25.64,11.5,0,19.25,8.52,19.25,22.83a43.89,43.89,0,0,1-.42,6.56H989.4c.85,7.16,4.34,10.48,12.43,10.48,6.14,0,8.44-.86,13.38-2.64l3.49,10.05-2.56.93a39.11,39.11,0,0,1-15.5,2.73C985.14,330.11,976.62,320.83,976.62,304.81Zm29.47-6.22c-.77-5.53-3.49-8.86-7.58-8.86-6,0-8.18,4.52-8.94,8.86Z"/><path d="M1029.6,316.31c0-10.9,10.82-18.4,26.41-18.4h.25c0-5.19-2.38-7.07-7.15-7.07s-8.86,1.54-15.93,4.26l.34-10.56c6.73-2.81,12-4.43,17.8-4.43,10.57,0,17.21,6.13,17.21,17.55v31.85h-12.35V326.7a22.11,22.11,0,0,1-12,3.41C1035.48,330.11,1029.6,324.49,1029.6,316.31Zm17,2.9a13.86,13.86,0,0,0,9.62-3.84v-7.75h-.59c-8.27,0-14.14,3.92-14.14,7.92C1041.53,318.53,1044.34,319.21,1046.64,319.21Z"/><path d="M1079.69,266.05l12.35,2.13v61.33h-12.35Z"/><path d="M1117.94,264.69h42.33l-1.87,12h-27.6v13.21h23.68l2,12H1130.8v15.5h28l1.88,12.09h-42.76Z"/><path d="M1169.56,327.3V316.23c7.66,2.81,12.26,4.08,17.46,4.08,7.32,0,7.66-3.49,7.66-4.25,0-2.22-2.81-3.33-8.69-5.29-6.21-2.13-15.5-5.19-15.5-15.33,0-9.37,7.5-15.42,20-15.42,7,0,11,1.45,16.61,3.67v11.24c-8.43-3.41-11.58-4.09-15.08-4.09-5.11,0-8.35,1.79-8.35,4.09s2.9,3.41,9.12,5.54a34,34,0,0,1,9.71,4.51,12.74,12.74,0,0,1,5.45,10.56c0,9.2-7.66,15.59-19.68,15.59C1181,331.13,1176.37,329.94,1169.56,327.3Z"/><path d="M1220.49,317.5V292.8h-4.26l-2.38-10.73h6.64V269.21l12.27,2.13v10.73h10.31l-2.47,10.73h-7.84v24.11c0,2.3.76,2.72,2.38,2.72a11.85,11.85,0,0,0,3-.34l3.92-1.87v11.84a44.81,44.81,0,0,1-9.45,1.11C1224.75,330.37,1220.49,326.11,1220.49,317.5Z"/><path d="M1251.42,316.31c0-10.9,10.81-18.4,26.4-18.4h.26c0-5.19-2.39-7.07-7.16-7.07s-8.86,1.54-15.93,4.26l.34-10.56c6.73-2.81,12-4.43,17.81-4.43,10.56,0,17.2,6.13,17.2,17.55v31.85H1278V326.7a22.11,22.11,0,0,1-12,3.41C1257.29,330.11,1251.42,324.49,1251.42,316.31Zm17,2.9a13.9,13.9,0,0,0,9.63-3.84v-7.75h-.6c-8.26,0-14.14,3.92-14.14,7.92C1263.34,318.53,1266.15,319.21,1268.45,319.21Z"/><path d="M1303.12,317.5V292.8h-4.26l-2.38-10.73h6.64V269.21l12.27,2.13v10.73h10.3l-2.47,10.73h-7.83v24.11c0,2.3.76,2.72,2.38,2.72a11.85,11.85,0,0,0,3-.34l3.92-1.87v11.84a44.81,44.81,0,0,1-9.45,1.11C1307.38,330.37,1303.12,326.11,1303.12,317.5Z"/><path d="M1333.36,304.81c0-15.76,8.43-25.64,22.06-25.64,11.5,0,19.25,8.52,19.25,22.83a43.89,43.89,0,0,1-.42,6.56h-28.11c.85,7.16,4.34,10.48,12.43,10.48,6.14,0,8.44-.86,13.38-2.64l3.49,10.05-2.56.93a39.11,39.11,0,0,1-15.5,2.73C1341.88,330.11,1333.36,320.83,1333.36,304.81Zm29.47-6.22c-.76-5.53-3.49-8.86-7.58-8.86-6,0-8.18,4.52-8.94,8.86Z"/></svg>