<svg id="Layer_1" data-name="Layer 1" xmlns="http://www.w3.org/2000/svg" xmlns:xlink="http://www.w3.org/1999/xlink" viewBox="0 0 1400 481.32"><defs><style>.cls-1{fill:#fff;}.cls-2{fill:url(#linear-gradient);}</style><linearGradient id="linear-gradient" x1="1474.35" y1="77.06" x2="928.14" y2="459.77" gradientUnits="userSpaceOnUse"><stop offset="0" stop-color="#b47a1a"/><stop offset="0.05" stop-color="#b9811e"/><stop offset="0.13" stop-color="#c69429"/><stop offset="0.22" stop-color="#dcb33c"/><stop offset="0.32" stop-color="#fade56"/><stop offset="0.33" stop-color="#ffe55a"/><stop offset="0.52" stop-color="#ffec88"/><stop offset="0.66" stop-color="#ffe55a"/><stop offset="1" stop-color="#b47a1a"/></linearGradient></defs><path class="cls-1" d="M44.41,211.64a17.76,17.76,0,0,1-9,2.09H29.7c-11,0-16-7.28-15.95-17.89l.07-7.51c.08-10.22,7.51-14.63,15.88-14.63H40.54v-1.32l11-2.63v27.72c0,4.88,2.17,7.28,6.51,7.28h4.18V216H56C50.68,216,46.81,214.5,44.41,211.64ZM21.49,157.36h9.68v9.52H21.49Zm7.66,45.14h6.28c3.4,0,5.11-1.78,5.11-5.34V184.93H29.7c-3.49,0-5.27,1.78-5.27,5.26v6.89C24.43,200.72,26,202.5,29.15,202.5Zm5.35-45.14h9.68v9.52H34.5Z"/><path class="cls-1" d="M59.89,204.75H86V216H59.89Z"/><path class="cls-1" d="M83.51,220.93h9.68v9.52H83.51Zm.15-16.18h7.59q6.73,0,6.74-6.51V183.76l10.76-6.42v19.9C108.75,209.7,102.86,216,91,216H83.66Zm12.85,16.18h9.68v9.52H96.51Z"/><path class="cls-1" d="M115.79,220.47H118q6.74,0,6.74-6.51V184l10.92-6.57v36.15c0,12.47-5.89,18.74-17.73,18.74h-4.5Z"/><path class="cls-1" d="M145.06,197.24V161.15l10.76,6.43v30.66q0,6.51,6.74,6.51h4.88V216h-4.65C150.94,216,145.06,209.7,145.06,197.24Z"/><path class="cls-1" d="M165.11,204.75H173a31.7,31.7,0,0,1-.85-7.75c0-8.05.93-12.85,4.34-16.8,3.25-3.95,7.58-5.5,15-5.5,10.68,0,17.73,5.42,17.73,18.51v11.54H219V216h-53.9Zm15-44h9.67v9.52h-9.67Zm9.44,44h8.67V193.21c0-5.5-2.71-6.82-8.36-6.82q-6.73,0-6.73,6.74v4.34C183.16,202.35,185.25,204.75,189.58,204.75Zm3.56-44h9.68v9.52h-9.68Z"/><path class="cls-1" d="M246.88,212.57a37.3,37.3,0,0,1-16.42,3.4H216.68V204.75h21.14a173,173,0,0,0-12.39-12.08l-.78-.7a70.64,70.64,0,0,1,2-11.38,39.09,39.09,0,0,1,20.52-6c10.91,0,21.52,3.87,21.52,14.33a12.29,12.29,0,0,1-1.08,5.18c-.31,1.47-2.4,5.42-8.6,10.69h19.36V216h-18C254.39,216,249.9,214.66,246.88,212.57Zm1.24-11.15c3.94-2.33,8.44-5.89,8.44-11.15,0-2.4-2.33-5.81-9.37-5.81-6.43,0-9.84,1.78-11.93,3.25A56,56,0,0,1,248.12,201.42Z"/><path class="cls-1" d="M276.06,204.75h3.26q6.74,0,6.73-6.51V167.58l10.77-6.43v36.09c0,12.46-5.89,18.73-17.74,18.73h-3Z"/><path class="cls-1" d="M306.26,167.66l10.92-6.59V216H306.26Z"/><path class="cls-1" d="M367,211.64a17.73,17.73,0,0,1-9,2.09h-5.73c-11,0-16-7.28-15.95-17.89l.08-7.51c.08-10.22,7.51-14.63,15.87-14.63h10.84v-1.32l11-2.63v27.72c0,4.88,2.17,7.28,6.5,7.28h4.19V216h-6.2C373.24,216,369.37,214.5,367,211.64Zm-22.91-54.28h9.67v9.52h-9.67Zm7.66,45.14H358q5.11,0,5.11-5.34V184.93H352.25c-3.48,0-5.26,1.78-5.26,5.26v6.89C347,200.72,348.54,202.5,351.71,202.5Zm5.34-45.14h9.68v9.52h-9.68Z"/><path class="cls-1" d="M382.45,204.75h26.09V216H382.45Z"/><path class="cls-1" d="M417.52,197.7V167.5l10.77-6.43v27.81l11.61-10.54a20.81,20.81,0,0,1,13.55-5.11c12.16,0,20.75,10.07,21.22,21.61V216H406.22V204.75C415.59,204.75,417.52,203.82,417.52,197.7Zm46.15,7.05v-8.83c0-6.35-4.64-11.07-10.06-11.07-4.81,0-8.83,3.79-12.32,6.89L429.6,202.27v2.48Z"/><path class="cls-1" d="M484.11,197.24V161.15l10.76,6.43v30.66q0,6.51,6.74,6.51h4.88V216h-4.65C490,216,484.11,209.7,484.11,197.24Z"/><path class="cls-1" d="M504.16,204.75h10.53V183.92l10.77-5.5v26.33h7.43a4.06,4.06,0,0,0,4-4v-16.8l10.68-5.5v26.33h4.8c4.42,0,6.58-2.33,6.58-6.9V183.92l10.77-5.5v18.82c0,12.46-5.89,18.73-17.66,18.73H504.16Z"/><path class="cls-1" d="M593.9,220.93h2.71c3.95,0,6.12-1.62,6.58-5h-8.13c-10.68,0-16-5.65-16-17,0-8.13.47-12.7,4-17s7.67-4.88,15.18-4.88c10.6,0,16,5.66,16,17v10.61h7.12V216h-7.12c-1,10.84-6.9,16.27-17.81,16.27h-5.73Zm.77-16.18h8.68V193.67c0-3.48-1.71-5.26-5.11-5.26h-3.18c-3.48,0-5.19,1.62-5.19,5v5.8C589.87,202.89,591.5,204.75,594.67,204.75Z"/><path class="cls-1" d="M619,204.75h3.48q6.74,0,6.74-6.51V167.5L640,161.07v36.17a27.71,27.71,0,0,1-.93,7.51h8.13V216H619Z"/><path class="cls-1" d="M644.85,204.75h3.25q6.74,0,6.74-6.51V167.58l10.76-6.43v36.09c0,12.46-5.89,18.73-17.73,18.73h-3Z"/><path class="cls-1" d="M696,228.83c-7.51-2-11.23-7.9-11.23-17.66.23-12.77,6.89-18,20.75-18l-1.86,10.92c-5.11,0-7.66,1.63-7.82,8,.08,4.56,2.33,6.81,6.74,6.81h14.4c4.49,0,6.74-2.25,6.74-6.81V167.5l11-6.43v43.68h8.44V216h-8.44c-.31,7.52-4.88,14.1-15.34,14.1H704.78A31.59,31.59,0,0,1,696,228.83Z"/><path class="cls-1" d="M740.78,204.75h26.09V216H740.78Z"/><path class="cls-1" d="M764.55,204.75H771q6.74,0,6.74-6.51V183.76l10.76-6.42v19.9a27.71,27.71,0,0,1-.93,7.51h11.31V216h-34.3Zm3.64,16.18h9.67v9.52h-9.67Zm13,0h9.68v9.52h-9.68Z"/><path class="cls-1" d="M796.52,204.75H800q6.74,0,6.73-6.51V167.5l10.77-6.43v36.17a27.71,27.71,0,0,1-.93,7.51h8.13V216H796.52Z"/><path class="cls-1" d="M822.38,204.75h10.69a26.34,26.34,0,0,1-.62-5.73v-5.19c0-8.67,3.56-14.94,9.83-16.8,1.63-5.42,4.42-8.37,10.15-10.07a61.55,61.55,0,0,1,12.93-1.16c5.5,0,8.83.54,12.08,3.41,4.26,4.25,4.72,9.44,4.72,15.25v20.29h9.53V216H822.38Zm24.4,0h7.51V193c0-4.49-1.71-5.65-6-5.65-3.48,0-5.18,1.62-5.18,4.95v7.05C843.14,202.5,844.38,204.36,846.78,204.75ZM865,193v11.77h6.27V184.38c0-4.72-2.09-7-6.35-7a66.33,66.33,0,0,0-8,.23C862.34,179.81,865,185,865,193Z"/><path class="cls-1" d="M889.36,204.75h6.43q6.74,0,6.73-6.51V183.76l10.77-6.42v19.9a27.3,27.3,0,0,1-.94,7.51h11.31V216h-34.3Zm7.2-41.58h9.68v9.52h-9.68Zm13,0h9.68v9.52h-9.68Z"/><path class="cls-1" d="M921.33,204.75h3.26q6.74,0,6.73-6.51V167.58l10.77-6.43v36.09c0,12.46-5.89,18.73-17.74,18.73h-3Z"/><path class="cls-1" d="M951.53,167.66l10.92-6.59V216H951.53Z"/><path class="cls-1" d="M39.82,299.21l-14.47-.32-3.81,10.79-9.91,1.37L29.28,263.6h7.29l17.15,47.45-10.1-1.37ZM37.32,291l-4.68-13.46L27.9,291Z"/><path class="cls-1" d="M58.34,264.6l9,1.56v44.89h-9Z"/><path class="cls-1" d="M75.55,290.17H104V298H75.55Z"/><path class="cls-1" d="M124,272.39H113.1l-1.62-8.79H146l-1.62,8.79H133.43v38.66H124Z"/><path class="cls-1" d="M151.33,301.39c0-8,7.92-13.47,19.33-13.47h.19c0-3.81-1.75-5.18-5.24-5.18s-6.49,1.13-11.66,3.12l.25-7.73c4.92-2.06,8.79-3.24,13-3.24,7.73,0,12.6,4.48,12.6,12.84v23.32h-9V309a16.26,16.26,0,0,1-8.8,2.49C155.63,311.49,151.33,307.37,151.33,301.39Zm12.47,2.12a10.15,10.15,0,0,0,7-2.81V295h-.44c-6,0-10.35,2.87-10.35,5.8C160.06,303,162.12,303.51,163.8,303.51Z"/><path class="cls-1" d="M201.78,284.3a12.66,12.66,0,0,0-7.36,3v23.75h-9V264.6l9,1.56v11.53a17.71,17.71,0,0,1,9-2.37c6.86,0,11.48,4.24,11.48,12.16v23.57h-9V289C205.9,285.3,204.28,284.3,201.78,284.3Z"/><path class="cls-1" d="M221.18,264.6l9,1.56v44.89h-9Z"/><path class="cls-1" d="M236.09,293c0-11.54,6.17-18.77,16.15-18.77,8.42,0,14.09,6.24,14.09,16.71a32.15,32.15,0,0,1-.31,4.81H245.44c.62,5.23,3.18,7.67,9.1,7.67,4.49,0,6.18-.63,9.79-1.94l2.56,7.36-1.87.68a28.62,28.62,0,0,1-11.35,2C242.32,311.49,236.09,304.69,236.09,293Zm21.57-4.55c-.56-4.06-2.55-6.49-5.55-6.49-4.36,0-6,3.31-6.54,6.49Z"/><path class="cls-1" d="M273.51,293c0-11.54,6.17-18.77,16.15-18.77,8.42,0,14.09,6.24,14.09,16.71a32.15,32.15,0,0,1-.31,4.81H282.86c.62,5.23,3.18,7.67,9.1,7.67,4.49,0,6.18-.63,9.79-1.94l2.56,7.36-1.87.68a28.62,28.62,0,0,1-11.35,2C279.74,311.49,273.51,304.69,273.51,293Zm21.57-4.55c-.56-4.06-2.55-6.49-5.55-6.49-4.36,0-6,3.31-6.54,6.49Z"/><path class="cls-1" d="M310.87,264.6l9,1.56v44.89h-9Z"/><path class="cls-1" d="M352.27,293.66h-7v17.39h-9.42V263.6h19.27c9,0,15,6.17,15,15,0,6.42-3,11.35-8.17,13.47l11.23,18.95H362.38Zm2.44-8.86c3.92,0,6-2.12,6-6.17,0-3.81-2.36-6.24-6-6.24h-9.42V284.8Z"/><path class="cls-1" d="M375.29,293c0-11.54,6.17-18.77,16.15-18.77,8.42,0,14.09,6.24,14.09,16.71a32.15,32.15,0,0,1-.31,4.81H384.64c.63,5.23,3.18,7.67,9.11,7.67,4.49,0,6.17-.63,9.79-1.94l2.55,7.36-1.87.68a28.58,28.58,0,0,1-11.34,2C381.53,311.49,375.29,304.69,375.29,293Zm21.58-4.55c-.57-4.06-2.56-6.49-5.55-6.49-4.37,0-6,3.31-6.55,6.49Z"/><path class="cls-1" d="M412.59,301.39c0-8,7.91-13.47,19.33-13.47h.18c0-3.81-1.74-5.18-5.23-5.18s-6.49,1.13-11.67,3.12l.25-7.73c4.93-2.06,8.8-3.24,13-3.24,7.73,0,12.59,4.48,12.59,12.84v23.32h-9V309a16.2,16.2,0,0,1-8.79,2.49C416.89,311.49,412.59,307.37,412.59,301.39Zm12.47,2.12a10.11,10.11,0,0,0,7-2.81V295h-.43c-6.05,0-10.35,2.87-10.35,5.8C421.32,303,423.37,303.51,425.06,303.51Z"/><path class="cls-1" d="M447.76,264.6l9,1.56v44.89h-9Z"/><path class="cls-1" d="M472.77,263.6h31l-1.37,8.79h-20.2v9.67h17.33l1.44,8.79H482.19V302.2H502.7l1.37,8.85h-31.3Z"/><path class="cls-1" d="M509.07,309.43v-8.1c5.61,2.06,9,3,12.78,3,5.37,0,5.61-2.56,5.61-3.12,0-1.62-2.05-2.43-6.36-3.86-4.55-1.56-11.35-3.81-11.35-11.23,0-6.86,5.49-11.29,14.66-11.29,5.11,0,8,1.06,12.16,2.69v8.23c-6.17-2.5-8.48-3-11-3-3.74,0-6.11,1.31-6.11,3s2.12,2.49,6.67,4.05a24.63,24.63,0,0,1,7.11,3.31,9.31,9.31,0,0,1,4,7.73c0,6.73-5.61,11.41-14.4,11.41A33.48,33.48,0,0,1,509.07,309.43Z"/><path class="cls-1" d="M544.87,302.26V284.18h-3.12L540,276.32h4.87v-9.41l9,1.55v7.86h7.55l-1.81,7.86h-5.74v17.64c0,1.69.57,2,1.75,2a8.43,8.43,0,0,0,2.18-.25l2.87-1.37v8.67a32.67,32.67,0,0,1-6.92.81C548,311.68,544.87,308.56,544.87,302.26Z"/><path class="cls-1" d="M566,301.39c0-8,7.92-13.47,19.33-13.47h.19c0-3.81-1.75-5.18-5.24-5.18s-6.49,1.13-11.66,3.12l.25-7.73c4.92-2.06,8.79-3.24,13-3.24,7.73,0,12.6,4.48,12.6,12.84v23.32h-9V309a16.2,16.2,0,0,1-8.79,2.49C570.31,311.49,566,307.37,566,301.39Zm12.47,2.12a10.15,10.15,0,0,0,7-2.81V295h-.44c-6.05,0-10.35,2.87-10.35,5.8C574.74,303,576.8,303.51,578.48,303.51Z"/><path class="cls-1" d="M602.37,302.26V284.18h-3.12l-1.74-7.86h4.86v-9.41l9,1.55v7.86h7.54l-1.81,7.86h-5.73v17.64c0,1.69.56,2,1.74,2a8.58,8.58,0,0,0,2.19-.25l2.86-1.37v8.67a32.6,32.6,0,0,1-6.92.81C605.49,311.68,602.37,308.56,602.37,302.26Z"/><path class="cls-1" d="M623,293c0-11.54,6.18-18.77,16.15-18.77,8.42,0,14.1,6.24,14.1,16.71a32.19,32.19,0,0,1-.32,4.81H632.37c.62,5.23,3.18,7.67,9.1,7.67,4.49,0,6.17-.63,9.79-1.94l2.56,7.36-1.87.68a28.65,28.65,0,0,1-11.35,2C629.25,311.49,623,304.69,623,293Zm21.58-4.55c-.56-4.06-2.56-6.49-5.55-6.49-4.37,0-6,3.31-6.55,6.49Z"/><path class="cls-1" d="M670.22,263.6h18.9c8.92,0,14.47,5,14.47,13.22a12.41,12.41,0,0,1-4.12,9.73A12.23,12.23,0,0,1,705,297.27c0,8.55-5.61,13.78-14.72,13.78H670.22Zm18.52,18.89c4,0,5.62-1.55,5.62-5.05,0-1.24,0-5.05-5.62-5.05h-9.1v10.1Zm1.06,19.71c3.93,0,5.8-1.68,5.8-5.43,0-1.31,0-5.49-6.61-5.49h-9.35V302.2Z"/><path class="cls-1" d="M709.89,275.7l9,1.55v1.5c3.8-2.74,6.67-3,11.47-3v8.17c-1.62-.06-.93-.13-2.62-.13a12.9,12.9,0,0,0-8.85,4.31v22.94h-9Z"/><path class="cls-1" d="M733,293.47c0-11.29,6.17-18.21,15.84-18.21s15.9,6.92,15.9,18.21-6.3,18.21-15.9,18.21S733,304.76,733,293.47Zm15.84,10.47c4.8,0,7.11-4.17,7.11-10.47S753.73,283,748.87,283s-7.18,4.05-7.18,10.48S744.13,303.94,748.87,303.94Z"/><path class="cls-1" d="M778.74,295.72v15.33h-9V264.6l9,1.56v15.59L791,266.47h11.1l-18.33,21.95,18,22.63H790.53Z"/><path class="cls-1" d="M801.82,293c0-11.54,6.17-18.77,16.15-18.77,8.42,0,14.09,6.24,14.09,16.71a32.15,32.15,0,0,1-.31,4.81H811.17c.63,5.23,3.18,7.67,9.11,7.67,4.49,0,6.17-.63,9.79-1.94l2.55,7.36-1.87.68a28.59,28.59,0,0,1-11.35,2C808.05,311.49,801.82,304.69,801.82,293Zm21.58-4.55c-.57-4.06-2.56-6.49-5.55-6.49-4.37,0-6,3.31-6.55,6.49Z"/><path class="cls-1" d="M838.8,275.7l9,1.55v1.5c3.81-2.74,6.68-3,11.48-3v8.17c-1.62-.06-.94-.13-2.62-.13a12.9,12.9,0,0,0-8.86,4.31v22.94h-9Z"/><path class="cls-1" d="M861.44,301.39c0-8,7.92-13.47,19.33-13.47H881c0-3.81-1.74-5.18-5.24-5.18s-6.48,1.13-11.66,3.12l.25-7.73c4.93-2.06,8.79-3.24,13-3.24,7.74,0,12.6,4.48,12.6,12.84v23.32h-9V309a16.2,16.2,0,0,1-8.79,2.49C865.75,311.49,861.44,307.37,861.44,301.39Zm12.48,2.12a10.12,10.12,0,0,0,7-2.81V295h-.43c-6.06,0-10.36,2.87-10.36,5.8C870.17,303,872.23,303.51,873.92,303.51Z"/><path class="cls-1" d="M896.8,321.16l1.81-7.74c3.93,1.62,6.24,2.5,9.86,2.5,4.67,0,7.73-1.87,7.73-5.68a15.17,15.17,0,0,1-6.8,1.63c-8.73,0-14.47-6.8-14.47-18.21,0-11.6,5.49-18.27,14.22-18.27a14.69,14.69,0,0,1,7.05,1.8v-1.62l9,1.56V310.3c0,8.3-6,13.66-15.71,13.66C904.79,324,901.48,323,896.8,321.16Zm14-17.53a9.17,9.17,0,0,0,5.43-1.74V285.8a9.6,9.6,0,0,0-5.43-1.75c-4.49,0-6.61,3.62-6.61,9.61C904.16,300.27,906.47,303.63,910.77,303.63Z"/><path class="cls-1" d="M930.8,293c0-11.54,6.17-18.77,16.15-18.77,8.42,0,14.09,6.24,14.09,16.71a32.15,32.15,0,0,1-.31,4.81H940.15c.62,5.23,3.18,7.67,9.1,7.67,4.49,0,6.18-.63,9.79-1.94l2.56,7.36-1.87.68a28.65,28.65,0,0,1-11.35,2C937,311.49,930.8,304.69,930.8,293Zm21.57-4.55c-.56-4.06-2.56-6.49-5.55-6.49-4.36,0-6,3.31-6.55,6.49Z"/><path class="cls-2" d="M1240.05,57.76c-2.55-.52-5.09-1-7.63-1.38a170.27,170.27,0,0,1,78.78,285.84V219l-4.48-2.34V346.52q-1.86,1.73-3.76,3.36V213l-4.49-2.33v143c-1,.82-2,1.61-3,2.4V208.4l-4.5-2.34V359.42c-1.56,1.14-3.12,2.25-4.72,3.31V201.46L1258,225.73V378.1c-1.61.7-3.24,1.37-4.88,2V151.54L1245,147.3V383.08h0c-2.25.76-4.53,1.46-6.83,2.14h0V140.57l-8.15-4.23v251h0c-1.81.44-3.65.84-5.48,1.21V132.26L1216.4,128V390c-2.72.4-5.47.75-8.23,1h0V112.72L1157,158.25v63.49l41.22,25.31V391.7c-2.28.1-4.58.15-6.88.15V251.28l-8.14-4.23v144.6h0c-2.27-.1-4.53-.25-6.82-.47h0V240.31l-8.14-4.23V390.25c-1.83-.23-3.66-.5-5.49-.84V232l-8.14-4.23V387.85q-4.33-1-8.56-2.11V219.41L1094.82,246V362a170.3,170.3,0,0,1-71.88-167.33c-.62,2.49-1.19,5-1.73,7.58A185.35,185.35,0,0,0,1146,416q4.23,1.36,8.56,2.52c2.69.72,5.41,1.39,8.14,2,1,.24,2,.46,3,.66a184.74,184.74,0,0,0,79.28-1h0c2.74-.63,5.46-1.34,8.15-2.09h0q2.46-.71,4.88-1.46a183.88,183.88,0,0,0,28.2-11.42c1.58-.79,3.16-1.62,4.72-2.47s3-1.65,4.5-2.51c1-.58,2-1.17,3-1.78q2.27-1.35,4.49-2.78,1.9-1.21,3.76-2.47,2.27-1.55,4.48-3.13a184.7,184.7,0,0,0,73.37-113.37C1405.09,176.29,1340.41,78.3,1240.05,57.76Z"/></svg>