<svg id="Layer_1" data-name="Layer 1" xmlns="http://www.w3.org/2000/svg" xmlns:xlink="http://www.w3.org/1999/xlink" viewBox="0 0 1400 1400"><defs><style>.cls-1{fill:#fff;}.cls-2{fill:url(#linear-gradient);}</style><linearGradient id="linear-gradient" x1="1374.14" y1="143.03" x2="17.65" y2="1093.47" gradientUnits="userSpaceOnUse"><stop offset="0" stop-color="#b47a1a"/><stop offset="0.05" stop-color="#b9811e"/><stop offset="0.13" stop-color="#c69429"/><stop offset="0.22" stop-color="#dcb33c"/><stop offset="0.32" stop-color="#fade56"/><stop offset="0.33" stop-color="#ffe55a"/><stop offset="0.52" stop-color="#ffec88"/><stop offset="0.66" stop-color="#ffe55a"/><stop offset="1" stop-color="#b47a1a"/></linearGradient></defs><path class="cls-1" d="M51.65,1143.79a26,26,0,0,1-13.16,3.06H30.1c-16.11,0-23.48-10.66-23.37-26.19l.12-11c.11-15,11-21.43,23.25-21.43H46v-1.93l16.1-3.86V1123c0,7.14,3.18,10.66,9.53,10.66h6.13v16.44H68.66C60.84,1150.14,55.17,1148,51.65,1143.79Zm-33.57-79.51H32.25v14H18.08Zm11.22,66.13h9.19q7.48,0,7.49-7.83v-17.92H30.1c-5.1,0-7.71,2.61-7.71,7.71v10.1C22.39,1127.8,24.65,1130.41,29.3,1130.41Zm7.83-66.13H51.31v14H37.13Z"/><path class="cls-1" d="M74.33,1133.7h38.22v16.44H74.33Z"/><path class="cls-1" d="M108.92,1157.4H123.1v13.95H108.92Zm.22-23.7h11.12q9.87,0,9.87-9.53V1103l15.76-9.41v29.15c0,18.26-8.62,27.44-26,27.44H109.14ZM128,1157.4h14.18v13.95H128Z"/><path class="cls-1" d="M156.21,1156.72h3.18q9.87,0,9.86-9.52v-43.9l16-9.64v53c0,18.26-8.62,27.45-26,27.45H152.7Z"/><path class="cls-1" d="M199.08,1122.7v-52.86l15.76,9.42v44.91q0,9.52,9.87,9.53h7.15v16.44h-6.81C207.7,1150.14,199.08,1141,199.08,1122.7Z"/><path class="cls-1" d="M228.45,1133.7H240a46.26,46.26,0,0,1-1.25-11.35c0-11.79,1.36-18.82,6.36-24.61,4.76-5.78,11.11-8,22-8,15.65,0,26,7.94,26,27.11v16.9h14.29v16.44H228.45Zm22-64.42h14.17v13.94H250.46Zm13.83,64.42H277v-16.9c0-8.06-4-10-12.25-10q-9.87,0-9.87,9.87V1123C254.88,1130.18,257.94,1133.7,264.29,1133.7Zm5.22-64.42h14.18v13.94H269.51Z"/><path class="cls-1" d="M348.22,1145.15c-6.81,3.29-14.75,5-24.05,5H304V1133.7h31c-7.15-8.06-17.7-17.24-18.15-17.69l-1.13-1a105.07,105.07,0,0,1,2.94-16.67,57.25,57.25,0,0,1,30.06-8.85c16,0,31.53,5.67,31.53,21a17.9,17.9,0,0,1-1.59,7.6c-.45,2.15-3.51,7.94-12.59,15.65h28.36v16.44H368C359.22,1150.14,352.64,1148.22,348.22,1145.15Zm1.81-16.33c5.79-3.4,12.36-8.62,12.36-16.33,0-3.52-3.4-8.51-13.72-8.51-9.41,0-14.4,2.61-17.47,4.76A82,82,0,0,1,350,1128.82Z"/><path class="cls-1" d="M391,1133.7h4.76q9.87,0,9.87-9.53v-44.91l15.77-9.42v52.86c0,18.26-8.62,27.44-26,27.44H391Z"/><path class="cls-1" d="M435.2,1079.37l16-9.64v80.41h-16Z"/><path class="cls-1" d="M524.12,1143.79a26,26,0,0,1-13.16,3.06h-8.39c-16.11,0-23.48-10.66-23.37-26.19l.12-11c.11-15,11-21.43,23.25-21.43h15.88v-1.93l16.1-3.86V1123c0,7.14,3.18,10.66,9.53,10.66h6.13v16.44h-9.08C533.31,1150.14,527.64,1148,524.12,1143.79Zm-33.57-79.51h14.17v14H490.55Zm11.22,66.13H511q7.49,0,7.49-7.83v-17.92H502.57c-5.1,0-7.71,2.61-7.71,7.71v10.1C494.86,1127.8,497.12,1130.41,501.77,1130.41Zm7.83-66.13h14.18v14H509.6Z"/><path class="cls-1" d="M546.8,1133.7H585v16.44H546.8Z"/><path class="cls-1" d="M598.17,1123.37v-44.23l15.77-9.41v40.72L631,1095a30.54,30.54,0,0,1,19.85-7.49c17.81,0,30.4,14.75,31.08,31.65v31H581.61V1133.7C595.34,1133.7,598.17,1132.33,598.17,1123.37Zm67.6,10.33v-12.93c0-9.3-6.8-16.22-14.74-16.22-7,0-12.93,5.55-18,10.09l-17.12,15.43v3.63Z"/><path class="cls-1" d="M695.71,1122.7v-52.86l15.76,9.42v44.91q0,9.52,9.87,9.53h7.15v16.44h-6.81C704.33,1150.14,695.71,1141,695.71,1122.7Z"/><path class="cls-1" d="M725.08,1133.7h15.43v-30.51l15.76-8.06v38.57h10.89a5.94,5.94,0,0,0,5.9-5.9v-24.61l15.65-8.06v38.57h7c6.47,0,9.64-3.41,9.64-10.1v-20.41l15.77-8.06v27.57c0,18.26-8.62,27.44-25.86,27.44H725.08Z"/><path class="cls-1" d="M856.53,1157.4h4c5.79,0,9-2.38,9.65-7.26H858.23c-15.66,0-23.48-8.28-23.48-25,0-11.91.68-18.6,5.9-24.84s11.23-7.15,22.23-7.15c15.54,0,23.36,8.29,23.36,25v15.54h10.44v16.44H886.24C884.77,1166,876.15,1174,860.16,1174h-8.4Zm1.13-23.7h12.7v-16.22c0-5.11-2.49-7.71-7.48-7.71h-4.65c-5.11,0-7.6,2.38-7.6,7.26v8.5C850.63,1131,853,1133.7,857.66,1133.7Z"/><path class="cls-1" d="M893.27,1133.7h5.1q9.87,0,9.87-9.53v-45l15.77-9.41v53a40.88,40.88,0,0,1-1.36,11h11.91v16.44H893.27Z"/><path class="cls-1" d="M931.15,1133.7h4.77q9.86,0,9.86-9.53v-44.91l15.77-9.42v52.86c0,18.26-8.62,27.44-26,27.44h-4.43Z"/><path class="cls-1" d="M1006,1169c-11-3-16.44-11.57-16.44-25.86.34-18.71,10.09-26.43,30.39-26.43l-2.72,16c-7.48,0-11.23,2.38-11.45,11.68.11,6.69,3.4,10,9.86,10h21.1c6.58,0,9.87-3.29,9.87-10v-65.22l16.11-9.41v64h12.36v16.44h-12.36c-.46,11-7.15,20.65-22.46,20.65h-21.33A46.14,46.14,0,0,1,1006,1169Z"/><path class="cls-1" d="M1071.67,1133.7h38.22v16.44h-38.22Z"/><path class="cls-1" d="M1106.48,1133.7h9.42q9.87,0,9.87-9.53V1103l15.76-9.41v29.15a40.48,40.48,0,0,1-1.36,11h16.56v16.44h-50.25Zm5.33,23.7H1126v13.95h-14.18Zm19.06,0h14.18v13.95h-14.18Z"/><path class="cls-1" d="M1153.32,1133.7h5.11q9.87,0,9.87-9.53v-45l15.76-9.41v53a40.48,40.48,0,0,1-1.36,11h11.91v16.44h-41.29Z"/><path class="cls-1" d="M1191.2,1133.7h15.66a38.68,38.68,0,0,1-.91-8.4v-7.6c0-12.7,5.22-21.88,14.4-24.61,2.38-7.94,6.47-12.25,14.86-14.74a89.63,89.63,0,0,1,18.94-1.71c8,0,12.93.8,17.69,5,6.24,6.23,6.92,13.83,6.92,22.34v29.72h14v16.44H1191.2Zm35.73,0h11v-17.24c0-6.58-2.49-8.28-8.73-8.28-5.1,0-7.6,2.38-7.6,7.26v10.32C1221.6,1130.41,1223.42,1133.13,1226.93,1133.7Zm26.66-17.24v17.24h9.18v-29.83c0-6.92-3.06-10.32-9.3-10.32-6.92,0-10.89.11-11.68.34C1249.73,1097.18,1253.59,1104.78,1253.59,1116.46Z"/><path class="cls-1" d="M1289.3,1133.7h9.42q9.87,0,9.86-9.53V1103l15.77-9.41v29.15a40.48,40.48,0,0,1-1.36,11h16.56v16.44H1289.3Zm10.55-60.91H1314v14h-14.18Zm19.06,0h14.17v14h-14.17Z"/><path class="cls-1" d="M1336.14,1133.7h4.76q9.87,0,9.87-9.53v-44.91l15.77-9.42v52.86c0,18.26-8.62,27.44-26,27.44h-4.43Z"/><path class="cls-1" d="M1380.38,1079.37l16-9.64v80.41h-16Z"/><path class="cls-1" d="M44.92,1272.06l-21.19-.46-5.57,15.8-14.53,2,25.85-69.51H40.17l25.12,69.51-14.8-2ZM41.26,1260l-6.84-19.73-7,19.73Z"/><path class="cls-1" d="M72.06,1221.37l13.24,2.28v65.76H72.06Z"/><path class="cls-1" d="M97.27,1258.82h41.65v11.5H97.27Z"/><path class="cls-1" d="M168.25,1232.78h-16l-2.37-12.88H200.4L198,1232.78H182v56.63H168.25Z"/><path class="cls-1" d="M208.26,1275.25c0-11.69,11.6-19.72,28.32-19.72h.27c0-5.58-2.55-7.59-7.67-7.59s-9.5,1.65-17.08,4.57l.36-11.32c7.22-3,12.88-4.75,19.09-4.75,11.33,0,18.46,6.57,18.46,18.81v34.16H236.76v-3a23.76,23.76,0,0,1-12.88,3.65C214.57,1290.05,208.26,1284,208.26,1275.25Zm18.27,3.11c3.93,0,7-1.28,10.32-4.11v-8.31h-.64c-8.86,0-15.16,4.2-15.16,8.49C221.05,1277.63,224.07,1278.36,226.53,1278.36Z"/><path class="cls-1" d="M282.16,1250.23c-3.19,0-6.94,1.46-10.77,4.38v34.8H258.23v-68l13.16,2.28v16.9a25.77,25.77,0,0,1,13.15-3.48c10,0,16.81,6.21,16.81,17.81v34.53H288.19v-32.24C288.19,1251.69,285.82,1250.23,282.16,1250.23Z"/><path class="cls-1" d="M310.58,1221.37l13.24,2.28v65.76H310.58Z"/><path class="cls-1" d="M332.41,1262.92c0-16.89,9-27.49,23.66-27.49,12.33,0,20.64,9.14,20.64,24.48a47.69,47.69,0,0,1-.45,7H346.11c.92,7.68,4.66,11.24,13.34,11.24,6.58,0,9-.92,14.34-2.83l3.74,10.77-2.74,1a41.9,41.9,0,0,1-16.62,2.92C341.55,1290.05,332.41,1280.1,332.41,1262.92Zm31.61-6.66c-.83-5.94-3.75-9.5-8.13-9.5-6.4,0-8.77,4.84-9.59,9.5Z"/><path class="cls-1" d="M387.22,1262.92c0-16.89,9-27.49,23.66-27.49,12.33,0,20.64,9.14,20.64,24.48a47.69,47.69,0,0,1-.45,7H400.93c.91,7.68,4.65,11.24,13.33,11.24,6.58,0,9-.92,14.34-2.83l3.75,10.77-2.74,1a41.94,41.94,0,0,1-16.63,2.92C396.36,1290.05,387.22,1280.1,387.22,1262.92Zm31.61-6.66c-.82-5.94-3.75-9.5-8.13-9.5-6.4,0-8.77,4.84-9.59,9.5Z"/><path class="cls-1" d="M442,1221.37l13.24,2.28v65.76H442Z"/><path class="cls-1" d="M502.6,1263.93H492.37v25.48H478.58V1219.9H506.8c13.25,0,22,9,22,22,0,9.4-4.38,16.62-12,19.72l16.44,27.77H517.4Zm3.56-13c5.76,0,8.86-3.11,8.86-9,0-5.58-3.47-9.14-8.86-9.14H492.37V1251Z"/><path class="cls-1" d="M536.31,1262.92c0-16.89,9.05-27.49,23.66-27.49,12.33,0,20.64,9.14,20.64,24.48a47.69,47.69,0,0,1-.45,7H550c.91,7.68,4.65,11.24,13.33,11.24,6.58,0,9-.92,14.34-2.83l3.74,10.77-2.74,1a41.87,41.87,0,0,1-16.62,2.92C545.45,1290.05,536.31,1280.1,536.31,1262.92Zm31.61-6.66c-.82-5.94-3.75-9.5-8.13-9.5-6.4,0-8.77,4.84-9.59,9.5Z"/><path class="cls-1" d="M590.94,1275.25c0-11.69,11.6-19.72,28.32-19.72h.27c0-5.58-2.56-7.59-7.67-7.59s-9.5,1.65-17.08,4.57l.36-11.32c7.22-3,12.88-4.75,19.09-4.75,11.33,0,18.46,6.57,18.46,18.81v34.16H619.44v-3a23.76,23.76,0,0,1-12.88,3.65C597.24,1290.05,590.94,1284,590.94,1275.25Zm18.27,3.11c3.93,0,7-1.28,10.32-4.11v-8.31h-.64c-8.86,0-15.16,4.2-15.16,8.49C603.73,1277.63,606.74,1278.36,609.21,1278.36Z"/><path class="cls-1" d="M642.47,1221.37l13.24,2.28v65.76H642.47Z"/><path class="cls-1" d="M679.1,1219.9h45.39l-2,12.88h-29.6v14.16h25.39l2.1,12.88H692.89v16.62h30.05l2,13H679.1Z"/><path class="cls-1" d="M732.27,1287v-11.88c8.22,3,13.15,4.38,18.72,4.38,7.86,0,8.22-3.74,8.22-4.56,0-2.38-3-3.56-9.31-5.66-6.67-2.29-16.63-5.58-16.63-16.44,0-10.05,8-16.54,21.47-16.54,7.49,0,11.78,1.56,17.81,3.93v12.06c-9-3.66-12.42-4.39-16.17-4.39-5.48,0-9,1.92-9,4.39s3.11,3.65,9.77,5.93c3.84,1.29,7.49,2.65,10.42,4.85a13.66,13.66,0,0,1,5.84,11.32c0,9.86-8.22,16.72-21.1,16.72C744.51,1291.15,739.57,1289.87,732.27,1287Z"/><path class="cls-1" d="M784.7,1276.53v-26.48h-4.57l-2.55-11.51h7.12v-13.8l13.15,2.28v11.52h11l-2.64,11.51h-8.41v25.84c0,2.47.83,2.92,2.56,2.92a12.49,12.49,0,0,0,3.2-.36l4.2-2v12.7a48.06,48.06,0,0,1-10.14,1.19C789.27,1290.33,784.7,1285.76,784.7,1276.53Z"/><path class="cls-1" d="M815.67,1275.25c0-11.69,11.6-19.72,28.32-19.72h.27c0-5.58-2.56-7.59-7.67-7.59s-9.5,1.65-17.08,4.57l.36-11.32c7.22-3,12.88-4.75,19.09-4.75,11.33,0,18.45,6.57,18.45,18.81v34.16H844.17v-3a23.76,23.76,0,0,1-12.88,3.65C822,1290.05,815.67,1284,815.67,1275.25Zm18.27,3.11c3.93,0,7-1.28,10.32-4.11v-8.31h-.64c-8.86,0-15.16,4.2-15.16,8.49C828.46,1277.63,831.47,1278.36,833.94,1278.36Z"/><path class="cls-1" d="M868.93,1276.53v-26.48h-4.57l-2.55-11.51h7.12v-13.8l13.15,2.28v11.52h11l-2.64,11.51h-8.41v25.84c0,2.47.83,2.92,2.56,2.92a12.49,12.49,0,0,0,3.2-.36l4.2-2v12.7a48.06,48.06,0,0,1-10.14,1.19C873.5,1290.33,868.93,1285.76,868.93,1276.53Z"/><path class="cls-1" d="M899.17,1262.92c0-16.89,9-27.49,23.66-27.49,12.33,0,20.64,9.14,20.64,24.48a46.41,46.41,0,0,1-.46,7H912.87c.91,7.68,4.66,11.24,13.34,11.24,6.57,0,9-.92,14.34-2.83l3.74,10.77-2.74,1a41.9,41.9,0,0,1-16.62,2.92C908.3,1290.05,899.17,1280.1,899.17,1262.92Zm31.6-6.66c-.82-5.94-3.74-9.5-8.12-9.5-6.4,0-8.77,4.84-9.6,9.5Z"/><path class="cls-1" d="M968.32,1219.9H996c13.06,0,21.19,7.4,21.19,19.37,0,6-2.19,11-6,14.24,5.21,3.38,8.13,8.86,8.13,15.71,0,12.52-8.22,20.19-21.55,20.19H968.32Zm27.13,27.68c5.85,0,8.22-2.28,8.22-7.4,0-1.83,0-7.4-8.22-7.4H982.12v14.8Zm1.55,28.86c5.76,0,8.5-2.47,8.5-8,0-1.91,0-8-9.68-8h-13.7v16Z"/><path class="cls-1" d="M1026.42,1237.62l13.16,2.28v2.19c5.57-4,9.77-4.38,16.81-4.38v12c-2.38-.09-1.38-.19-3.84-.19-5.21,0-10.78,3.57-13,6.31v33.61h-13.16Z"/><path class="cls-1" d="M1060.32,1263.66c0-16.54,9-26.68,23.2-26.68s23.29,10.14,23.29,26.68-9.23,26.67-23.29,26.67S1060.32,1280.19,1060.32,1263.66Zm23.2,15.34c7,0,10.41-6.12,10.41-15.34s-3.29-15.35-10.41-15.35c-7,0-10.51,5.93-10.51,15.35S1076.57,1279,1083.52,1279Z"/><path class="cls-1" d="M1127.28,1266.94v22.47h-13.16v-68l13.16,2.28v22.83l17.9-22.38h16.26l-26.86,32.16,26.4,33.15h-16.44Z"/><path class="cls-1" d="M1161.08,1262.92c0-16.89,9-27.49,23.66-27.49,12.33,0,20.64,9.14,20.64,24.48a46.41,46.41,0,0,1-.46,7h-30.14c.91,7.68,4.66,11.24,13.34,11.24,6.57,0,9-.92,14.34-2.83l3.74,10.77-2.74,1a41.9,41.9,0,0,1-16.62,2.92C1170.21,1290.05,1161.08,1280.1,1161.08,1262.92Zm31.6-6.66c-.82-5.94-3.74-9.5-8.12-9.5-6.4,0-8.77,4.84-9.6,9.5Z"/><path class="cls-1" d="M1215.25,1237.62l13.16,2.28v2.19c5.57-4,9.77-4.38,16.8-4.38v12c-2.37-.09-1.37-.19-3.84-.19-5.2,0-10.77,3.57-13,6.31v33.61h-13.16Z"/><path class="cls-1" d="M1248.41,1275.25c0-11.69,11.61-19.72,28.32-19.72h.27c0-5.58-2.55-7.59-7.67-7.59s-9.5,1.65-17.08,4.57l.37-11.32c7.21-3,12.88-4.75,19.09-4.75,11.32,0,18.45,6.57,18.45,18.81v34.16h-13.25v-3a23.76,23.76,0,0,1-12.88,3.65C1254.72,1290.05,1248.41,1284,1248.41,1275.25Zm18.27,3.11c3.93,0,7-1.28,10.32-4.11v-8.31h-.63c-8.87,0-15.17,4.2-15.17,8.49C1261.2,1277.63,1264.22,1278.36,1266.68,1278.36Z"/><path class="cls-1" d="M1300.21,1304.21l2.65-11.33c5.75,2.38,9.14,3.66,14.43,3.66,6.85,0,11.33-2.74,11.33-8.31a22.26,22.26,0,0,1-10,2.37c-12.79,0-21.19-10-21.19-26.67,0-17,8-26.76,20.83-26.76a21.49,21.49,0,0,1,10.32,2.64v-2.37l13.24,2.29v48.58c0,12.15-8.86,20-23,20C1311.9,1308.32,1307.06,1306.86,1300.21,1304.21Zm20.46-25.67a13.38,13.38,0,0,0,7.95-2.56v-23.56a14,14,0,0,0-7.95-2.56c-6.58,0-9.68,5.3-9.68,14.07C1311,1273.61,1314.37,1278.54,1320.67,1278.54Z"/><path class="cls-1" d="M1350,1262.92c0-16.89,9-27.49,23.66-27.49,12.33,0,20.64,9.14,20.64,24.48a46.41,46.41,0,0,1-.46,7H1363.7c.91,7.68,4.66,11.24,13.34,11.24,6.57,0,9-.92,14.34-2.83l3.74,10.77-2.74,1a41.9,41.9,0,0,1-16.62,2.92C1359.13,1290.05,1350,1280.1,1350,1262.92Zm31.6-6.66c-.82-5.94-3.74-9.5-8.12-9.5-6.4,0-8.77,4.84-9.6,9.5Z"/><path class="cls-2" d="M792.27,95.1c-6.34-1.29-12.64-2.46-18.94-3.42,218.5,54.47,357.13,272.17,311.59,494.88A421.32,421.32,0,0,1,969,801.55V495.6l-11.14-5.8V812.23c-3.09,2.84-6.17,5.63-9.34,8.34v-340l-11.14-5.8V830c-2.46,2-5,4-7.5,6V469.2l-11.18-5.8V844.26c-3.88,2.84-7.76,5.59-11.72,8.22V452l-70,60.26v378.4c-4,1.75-8.05,3.42-12.14,5V328l-20.23-10.51V903h0c-5.59,1.88-11.26,3.63-17,5.3h0V300.75l-20.23-10.5V913.57h0c-4.5,1.09-9.08,2.09-13.62,3V280.12l-20.22-10.51V920.12c-6.75,1-13.58,1.88-20.42,2.55h0V231.58L586,344.67V502.33l102.36,62.86V924.42c-5.66.25-11.37.37-17.07.37V575.7L651,565.19v359.1h0c-5.63-.25-11.26-.62-16.93-1.17h0V548.45L613.84,538V920.83c-4.54-.58-9.09-1.25-13.63-2.08V527.84L580,517.33V914.87q-10.77-2.39-21.27-5.26v-413l-127.12,66V850.77c-131.25-90-205-250.2-178.5-415.56-1.54,6.17-3,12.47-4.3,18.81-37.53,183.63,39.83,364.05,182.8,466.69a457.49,457.49,0,0,0,127.12,64q10.5,3.39,21.27,6.26c6.67,1.79,13.43,3.46,20.22,4.92,2.47.58,5,1.13,7.47,1.63a458.74,458.74,0,0,0,196.89-2.59h0q10.18-2.37,20.21-5.21h0q6.13-1.76,12.14-3.63a455,455,0,0,0,70-28.36c3.92-2,7.84-4,11.72-6.13s7.51-4.09,11.18-6.21c2.5-1.46,5-2.92,7.5-4.43,3.76-2.25,7.47-4.54,11.14-6.92,3.17-2,6.25-4,9.34-6.13q5.63-3.81,11.14-7.76a458.79,458.79,0,0,0,182.21-281.55C1202.15,389.46,1041.5,146.11,792.27,95.1Z"/></svg>