<svg id="Layer_1" data-name="Layer 1" xmlns="http://www.w3.org/2000/svg" xmlns:xlink="http://www.w3.org/1999/xlink" viewBox="0 0 1400 1400"><defs><style>.cls-1{fill:url(#linear-gradient);}</style><linearGradient id="linear-gradient" x1="1374.14" y1="131.47" x2="17.65" y2="1081.92" gradientUnits="userSpaceOnUse"><stop offset="0" stop-color="#b47a1a"/><stop offset="0.05" stop-color="#b9811e"/><stop offset="0.13" stop-color="#c69429"/><stop offset="0.22" stop-color="#dcb33c"/><stop offset="0.32" stop-color="#fade56"/><stop offset="0.33" stop-color="#ffe55a"/><stop offset="0.52" stop-color="#ffec88"/><stop offset="0.66" stop-color="#ffe55a"/><stop offset="1" stop-color="#b47a1a"/></linearGradient></defs><path d="M51.65,1132.24a26,26,0,0,1-13.16,3.06H30.1c-16.11,0-23.48-10.66-23.37-26.2l.12-11c.11-15,11-21.43,23.25-21.43H46v-1.93l16.1-3.86v40.6c0,7.15,3.18,10.67,9.53,10.67h6.13v16.44H68.66C60.84,1138.59,55.17,1136.43,51.65,1132.24Zm-33.57-79.51H32.25v14H18.08Zm11.22,66.13h9.19q7.48,0,7.49-7.83v-17.92H30.1c-5.1,0-7.71,2.61-7.71,7.71v10.09C22.39,1116.25,24.65,1118.86,29.3,1118.86Zm7.83-66.13H51.31v14H37.13Z"/><path d="M74.33,1122.15h38.22v16.44H74.33Z"/><path d="M108.92,1145.85H123.1v14H108.92Zm.22-23.7h11.12q9.87,0,9.87-9.53v-21.21l15.76-9.41v29.15c0,18.25-8.62,27.44-26,27.44H109.14Zm18.83,23.7h14.18v14H128Z"/><path d="M156.21,1145.17h3.18q9.87,0,9.86-9.52v-43.9l16-9.64v53c0,18.25-8.62,27.45-26,27.45H152.7Z"/><path d="M199.08,1111.15v-52.86l15.76,9.42v44.91q0,9.53,9.87,9.53h7.15v16.44h-6.81C207.7,1138.59,199.08,1129.4,199.08,1111.15Z"/><path d="M228.45,1122.15H240a46.37,46.37,0,0,1-1.25-11.35c0-11.79,1.36-18.82,6.36-24.61,4.76-5.78,11.11-8,22-8,15.65,0,26,7.94,26,27.1v16.91h14.29v16.44H228.45Zm22-64.43h14.17v14H250.46Zm13.83,64.43H277v-16.91c0-8-4-10-12.25-10q-9.87,0-9.87,9.87v6.35C254.88,1118.63,257.94,1122.15,264.29,1122.15Zm5.22-64.43h14.18v14H269.51Z"/><path d="M348.22,1133.6c-6.81,3.29-14.75,5-24.05,5H304v-16.44h31c-7.15-8.06-17.7-17.24-18.15-17.7l-1.13-1a104.86,104.86,0,0,1,2.94-16.67,57.25,57.25,0,0,1,30.06-8.85c16,0,31.53,5.67,31.53,21a17.9,17.9,0,0,1-1.59,7.6c-.45,2.15-3.51,7.94-12.59,15.65h28.36v16.44H368C359.22,1138.59,352.64,1136.67,348.22,1133.6Zm1.81-16.33c5.79-3.4,12.36-8.62,12.36-16.33,0-3.52-3.4-8.51-13.72-8.51-9.41,0-14.4,2.61-17.47,4.76A81.82,81.82,0,0,1,350,1117.27Z"/><path d="M391,1122.15h4.76q9.87,0,9.87-9.53v-44.91l15.77-9.42v52.86c0,18.25-8.62,27.44-26,27.44H391Z"/><path d="M435.2,1067.82l16-9.65v80.42h-16Z"/><path d="M524.12,1132.24A26,26,0,0,1,511,1135.3h-8.39c-16.11,0-23.48-10.66-23.37-26.2l.12-11c.11-15,11-21.43,23.25-21.43h15.88v-1.93l16.1-3.86v40.6c0,7.15,3.18,10.67,9.53,10.67h6.13v16.44h-9.08C533.31,1138.59,527.64,1136.43,524.12,1132.24Zm-33.57-79.51h14.17v14H490.55Zm11.22,66.13H511q7.49,0,7.49-7.83v-17.92H502.57c-5.1,0-7.71,2.61-7.71,7.71v10.09C494.86,1116.25,497.12,1118.86,501.77,1118.86Zm7.83-66.13h14.18v14H509.6Z"/><path d="M546.8,1122.15H585v16.44H546.8Z"/><path d="M598.17,1111.82v-44.23l15.77-9.42v40.73l17-15.43A30.54,30.54,0,0,1,650.8,1076c17.81,0,30.4,14.75,31.08,31.65v31H581.61v-16.44C595.34,1122.15,598.17,1120.78,598.17,1111.82Zm67.6,10.33v-12.93c0-9.3-6.8-16.23-14.74-16.23-7,0-12.93,5.56-18,10.1l-17.12,15.42v3.64Z"/><path d="M695.71,1111.15v-52.86l15.76,9.42v44.91q0,9.53,9.87,9.53h7.15v16.44h-6.81C704.33,1138.59,695.71,1129.4,695.71,1111.15Z"/><path d="M725.08,1122.15h15.43v-30.52l15.76-8.05v38.57h10.89a5.94,5.94,0,0,0,5.9-5.9v-24.62l15.65-8.05v38.57h7c6.47,0,9.64-3.41,9.64-10.1v-20.42l15.77-8.05v27.57c0,18.25-8.62,27.44-25.86,27.44H725.08Z"/><path d="M856.53,1145.85h4c5.79,0,9-2.38,9.65-7.26H858.23c-15.66,0-23.48-8.28-23.48-24.95,0-11.91.68-18.6,5.9-24.84s11.23-7.15,22.23-7.15c15.54,0,23.36,8.29,23.36,25v15.54h10.44v16.44H886.24c-1.47,15.88-10.09,23.82-26.08,23.82h-8.4Zm1.13-23.7h12.7v-16.22c0-5.11-2.49-7.72-7.48-7.72h-4.65c-5.11,0-7.6,2.38-7.6,7.27v8.5C850.63,1119.42,853,1122.15,857.66,1122.15Z"/><path d="M893.27,1122.15h5.1q9.87,0,9.87-9.53v-45l15.77-9.42v53a40.88,40.88,0,0,1-1.36,11h11.91v16.44H893.27Z"/><path d="M931.15,1122.15h4.77q9.86,0,9.86-9.53v-44.91l15.77-9.42v52.86c0,18.25-8.62,27.44-26,27.44h-4.43Z"/><path d="M1006,1157.42c-11-3-16.44-11.57-16.44-25.86.34-18.72,10.09-26.43,30.39-26.43l-2.72,16c-7.48,0-11.23,2.38-11.45,11.68.11,6.69,3.4,10,9.86,10h21.1c6.58,0,9.87-3.29,9.87-10v-65.22l16.11-9.42v64h12.36v16.44h-12.36c-.46,11-7.15,20.65-22.46,20.65h-21.33A46.14,46.14,0,0,1,1006,1157.42Z"/><path d="M1071.67,1122.15h38.22v16.44h-38.22Z"/><path d="M1106.48,1122.15h9.42q9.87,0,9.87-9.53v-21.21l15.76-9.41v29.15a40.48,40.48,0,0,1-1.36,11h16.56v16.44h-50.25Zm5.33,23.7H1126v14h-14.18Zm19.06,0h14.18v14h-14.18Z"/><path d="M1153.32,1122.15h5.11q9.87,0,9.87-9.53v-45l15.76-9.42v53a40.48,40.48,0,0,1-1.36,11h11.91v16.44h-41.29Z"/><path d="M1191.2,1122.15h15.66a38.68,38.68,0,0,1-.91-8.4v-7.6c0-12.7,5.22-21.88,14.4-24.61,2.38-7.94,6.47-12.25,14.86-14.74a89.63,89.63,0,0,1,18.94-1.71c8,0,12.93.8,17.69,5,6.24,6.23,6.92,13.83,6.92,22.34v29.72h14v16.44H1191.2Zm35.73,0h11v-17.24c0-6.58-2.49-8.28-8.73-8.28-5.1,0-7.6,2.38-7.6,7.25v10.32C1221.6,1118.86,1223.42,1121.58,1226.93,1122.15Zm26.66-17.24v17.24h9.18v-29.83c0-6.92-3.06-10.32-9.3-10.32-6.92,0-10.89.11-11.68.34C1249.73,1085.63,1253.59,1093.23,1253.59,1104.91Z"/><path d="M1289.3,1122.15h9.42q9.87,0,9.86-9.53v-21.21l15.77-9.41v29.15a40.48,40.48,0,0,1-1.36,11h16.56v16.44H1289.3Zm10.55-60.91H1314v14h-14.18Zm19.06,0h14.17v14h-14.17Z"/><path d="M1336.14,1122.15h4.76q9.87,0,9.87-9.53v-44.91l15.77-9.42v52.86c0,18.25-8.62,27.44-26,27.44h-4.43Z"/><path d="M1380.38,1067.82l16-9.65v80.42h-16Z"/><path d="M44.92,1260.51l-21.19-.46-5.57,15.8-14.53,2,25.85-69.51H40.17l25.12,69.51-14.8-2Zm-3.66-12.06-6.84-19.73-7,19.73Z"/><path d="M72.06,1209.81l13.24,2.28v65.77H72.06Z"/><path d="M97.27,1247.26h41.65v11.51H97.27Z"/><path d="M168.25,1221.23h-16l-2.37-12.88H200.4L198,1221.23H182v56.63H168.25Z"/><path d="M208.26,1263.7c0-11.69,11.6-19.73,28.32-19.73h.27c0-5.57-2.55-7.58-7.67-7.58s-9.5,1.65-17.08,4.57l.36-11.33c7.22-3,12.88-4.75,19.09-4.75,11.33,0,18.46,6.58,18.46,18.82v34.16H236.76v-3a23.69,23.69,0,0,1-12.88,3.66C214.57,1278.5,208.26,1272.47,208.26,1263.7Zm18.27,3.11c3.93,0,7-1.28,10.32-4.11v-8.32h-.64c-8.86,0-15.16,4.21-15.16,8.5C221.05,1266.07,224.07,1266.81,226.53,1266.81Z"/><path d="M282.16,1238.68c-3.19,0-6.94,1.46-10.77,4.38v34.8H258.23v-68l13.16,2.28V1229a25.76,25.76,0,0,1,13.15-3.47c10,0,16.81,6.21,16.81,17.81v34.53H288.19v-32.24C288.19,1240.14,285.82,1238.68,282.16,1238.68Z"/><path d="M310.58,1209.81l13.24,2.28v65.77H310.58Z"/><path d="M332.41,1251.37c0-16.9,9-27.49,23.66-27.49,12.33,0,20.64,9.13,20.64,24.48a47.69,47.69,0,0,1-.45,7H346.11c.92,7.67,4.66,11.24,13.34,11.24,6.58,0,9-.92,14.34-2.84l3.74,10.78-2.74,1a42.08,42.08,0,0,1-16.62,2.92C341.55,1278.5,332.41,1268.54,332.41,1251.37ZM364,1244.7c-.83-5.93-3.75-9.5-8.13-9.5-6.4,0-8.77,4.84-9.59,9.5Z"/><path d="M387.22,1251.37c0-16.9,9-27.49,23.66-27.49,12.33,0,20.64,9.13,20.64,24.48a47.69,47.69,0,0,1-.45,7H400.93c.91,7.67,4.65,11.24,13.33,11.24,6.58,0,9-.92,14.34-2.84l3.75,10.78-2.74,1A42.12,42.12,0,0,1,413,1278.5C396.36,1278.5,387.22,1268.54,387.22,1251.37Zm31.61-6.67c-.82-5.93-3.75-9.5-8.13-9.5-6.4,0-8.77,4.84-9.59,9.5Z"/><path d="M442,1209.81l13.24,2.28v65.77H442Z"/><path d="M502.6,1252.38H492.37v25.48H478.58v-69.51H506.8c13.25,0,22,9,22,22,0,9.41-4.38,16.62-12,19.73l16.44,27.77H517.4Zm3.56-13c5.76,0,8.86-3.11,8.86-9.05,0-5.57-3.47-9.13-8.86-9.13H492.37v18.18Z"/><path d="M536.31,1251.37c0-16.9,9.05-27.49,23.66-27.49,12.33,0,20.64,9.13,20.64,24.48a47.69,47.69,0,0,1-.45,7H550c.91,7.67,4.65,11.24,13.33,11.24,6.58,0,9-.92,14.34-2.84l3.74,10.78-2.74,1a42.05,42.05,0,0,1-16.62,2.92C545.45,1278.5,536.31,1268.54,536.31,1251.37Zm31.61-6.67c-.82-5.93-3.75-9.5-8.13-9.5-6.4,0-8.77,4.84-9.59,9.5Z"/><path d="M590.94,1263.7c0-11.69,11.6-19.73,28.32-19.73h.27c0-5.57-2.56-7.58-7.67-7.58s-9.5,1.65-17.08,4.57l.36-11.33c7.22-3,12.88-4.75,19.09-4.75,11.33,0,18.46,6.58,18.46,18.82v34.16H619.44v-3a23.69,23.69,0,0,1-12.88,3.66C597.24,1278.5,590.94,1272.47,590.94,1263.7Zm18.27,3.11c3.93,0,7-1.28,10.32-4.11v-8.32h-.64c-8.86,0-15.16,4.21-15.16,8.5C603.73,1266.07,606.74,1266.81,609.21,1266.81Z"/><path d="M642.47,1209.81l13.24,2.28v65.77H642.47Z"/><path d="M679.1,1208.35h45.39l-2,12.88h-29.6v14.16h25.39l2.1,12.88H692.89v16.62h30.05l2,13H679.1Z"/><path d="M732.27,1275.49v-11.88c8.22,3,13.15,4.38,18.72,4.38,7.86,0,8.22-3.74,8.22-4.56,0-2.38-3-3.57-9.31-5.66-6.67-2.29-16.63-5.58-16.63-16.44,0-10,8-16.54,21.47-16.54,7.49,0,11.78,1.56,17.81,3.93v12c-9-3.65-12.42-4.38-16.17-4.38-5.48,0-9,1.92-9,4.38s3.11,3.66,9.77,5.94c3.84,1.28,7.49,2.65,10.42,4.85a13.66,13.66,0,0,1,5.84,11.32c0,9.86-8.22,16.72-21.1,16.72C744.51,1279.6,739.57,1278.32,732.27,1275.49Z"/><path d="M784.7,1265v-26.49h-4.57l-2.55-11.5h7.12v-13.8l13.15,2.28V1227h11l-2.64,11.5h-8.41v25.85c0,2.47.83,2.92,2.56,2.92a13,13,0,0,0,3.2-.36l4.2-2v12.7a48.06,48.06,0,0,1-10.14,1.19C789.27,1278.78,784.7,1274.2,784.7,1265Z"/><path d="M815.67,1263.7c0-11.69,11.6-19.73,28.32-19.73h.27c0-5.57-2.56-7.58-7.67-7.58s-9.5,1.65-17.08,4.57l.36-11.33c7.22-3,12.88-4.75,19.09-4.75,11.33,0,18.45,6.58,18.45,18.82v34.16H844.17v-3a23.69,23.69,0,0,1-12.88,3.66C822,1278.5,815.67,1272.47,815.67,1263.7Zm18.27,3.11c3.93,0,7-1.28,10.32-4.11v-8.32h-.64c-8.86,0-15.16,4.21-15.16,8.5C828.46,1266.07,831.47,1266.81,833.94,1266.81Z"/><path d="M868.93,1265v-26.49h-4.57l-2.55-11.5h7.12v-13.8l13.15,2.28V1227h11l-2.64,11.5h-8.41v25.85c0,2.47.83,2.92,2.56,2.92a13,13,0,0,0,3.2-.36l4.2-2v12.7a48.06,48.06,0,0,1-10.14,1.19C873.5,1278.78,868.93,1274.2,868.93,1265Z"/><path d="M899.17,1251.37c0-16.9,9-27.49,23.66-27.49,12.33,0,20.64,9.13,20.64,24.48a46.41,46.41,0,0,1-.46,7H912.87c.91,7.67,4.66,11.24,13.34,11.24,6.57,0,9-.92,14.34-2.84l3.74,10.78-2.74,1a42.08,42.08,0,0,1-16.62,2.92C908.3,1278.5,899.17,1268.54,899.17,1251.37Zm31.6-6.67c-.82-5.93-3.74-9.5-8.12-9.5-6.4,0-8.77,4.84-9.6,9.5Z"/><path d="M968.32,1208.35H996c13.06,0,21.19,7.4,21.19,19.37,0,6-2.19,11-6,14.24,5.21,3.38,8.13,8.86,8.13,15.71,0,12.52-8.22,20.19-21.55,20.19H968.32ZM995.45,1236c5.85,0,8.22-2.28,8.22-7.39,0-1.83,0-7.4-8.22-7.4H982.12V1236Zm1.55,28.87c5.76,0,8.5-2.47,8.5-8,0-1.92,0-8-9.68-8h-13.7v16Z"/><path d="M1026.42,1226.07l13.16,2.28v2.19c5.57-4,9.77-4.38,16.81-4.38v12c-2.38-.09-1.38-.19-3.84-.19-5.21,0-10.78,3.56-13,6.31v33.61h-13.16Z"/><path d="M1060.32,1252.1c0-16.53,9-26.67,23.2-26.67s23.29,10.14,23.29,26.67-9.23,26.68-23.29,26.68S1060.32,1268.63,1060.32,1252.1Zm23.2,15.35c7,0,10.41-6.13,10.41-15.35s-3.29-15.35-10.41-15.35c-7,0-10.51,5.94-10.51,15.35S1076.57,1267.45,1083.52,1267.45Z"/><path d="M1127.28,1255.39v22.47h-13.16v-68l13.16,2.28v22.84l17.9-22.38h16.26l-26.86,32.15,26.4,33.16h-16.44Z"/><path d="M1161.08,1251.37c0-16.9,9-27.49,23.66-27.49,12.33,0,20.64,9.13,20.64,24.48a46.41,46.41,0,0,1-.46,7h-30.14c.91,7.67,4.66,11.24,13.34,11.24,6.57,0,9-.92,14.34-2.84l3.74,10.78-2.74,1a42.08,42.08,0,0,1-16.62,2.92C1170.21,1278.5,1161.08,1268.54,1161.08,1251.37Zm31.6-6.67c-.82-5.93-3.74-9.5-8.12-9.5-6.4,0-8.77,4.84-9.6,9.5Z"/><path d="M1215.25,1226.07l13.16,2.28v2.19c5.57-4,9.77-4.38,16.8-4.38v12c-2.37-.09-1.37-.19-3.84-.19-5.2,0-10.77,3.56-13,6.31v33.61h-13.16Z"/><path d="M1248.41,1263.7c0-11.69,11.61-19.73,28.32-19.73h.27c0-5.57-2.55-7.58-7.67-7.58s-9.5,1.65-17.08,4.57l.37-11.33c7.21-3,12.88-4.75,19.09-4.75,11.32,0,18.45,6.58,18.45,18.82v34.16h-13.25v-3a23.69,23.69,0,0,1-12.88,3.66C1254.72,1278.5,1248.41,1272.47,1248.41,1263.7Zm18.27,3.11c3.93,0,7-1.28,10.32-4.11v-8.32h-.63c-8.87,0-15.17,4.21-15.17,8.5C1261.2,1266.07,1264.22,1266.81,1266.68,1266.81Z"/><path d="M1300.21,1292.66l2.65-11.33c5.75,2.37,9.14,3.66,14.43,3.66,6.85,0,11.33-2.75,11.33-8.32a22.27,22.27,0,0,1-10,2.38c-12.79,0-21.19-10-21.19-26.67,0-17,8-26.77,20.83-26.77a21.5,21.5,0,0,1,10.32,2.65v-2.37l13.24,2.28v48.59c0,12.15-8.86,20-23,20C1311.9,1296.77,1307.06,1295.31,1300.21,1292.66Zm20.46-25.67a13.38,13.38,0,0,0,7.95-2.56v-23.56a14,14,0,0,0-7.95-2.56c-6.58,0-9.68,5.3-9.68,14.07C1311,1262.06,1314.37,1267,1320.67,1267Z"/><path d="M1350,1251.37c0-16.9,9-27.49,23.66-27.49,12.33,0,20.64,9.13,20.64,24.48a46.41,46.41,0,0,1-.46,7H1363.7c.91,7.67,4.66,11.24,13.34,11.24,6.57,0,9-.92,14.34-2.84l3.74,10.78-2.74,1a42.08,42.08,0,0,1-16.62,2.92C1359.13,1278.5,1350,1268.54,1350,1251.37Zm31.6-6.67c-.82-5.93-3.74-9.5-8.12-9.5-6.4,0-8.77,4.84-9.6,9.5Z"/><path class="cls-1" d="M792.27,83.55c-6.34-1.29-12.64-2.46-18.94-3.42C991.83,134.6,1130.46,352.3,1084.92,575A421.32,421.32,0,0,1,969,790V484.05l-11.14-5.8V800.68c-3.09,2.83-6.17,5.63-9.34,8.34V469l-11.14-5.79V818.4c-2.46,2.05-5,4-7.5,6V457.65l-11.18-5.8V832.71c-3.88,2.83-7.76,5.59-11.72,8.21V440.42l-70,60.27V879.08q-6,2.64-12.14,5V316.43l-20.23-10.51V891.47h0c-5.59,1.88-11.26,3.63-17,5.3h0V289.2l-20.23-10.5V902h0c-4.5,1.09-9.08,2.08-13.62,3V268.57l-20.22-10.51V908.57c-6.75,1-13.58,1.88-20.42,2.54h0V220L586,333.12V490.78l102.36,62.86V912.87c-5.66.25-11.37.37-17.07.37V564.14L651,553.64v359.1h0c-5.63-.25-11.26-.62-16.93-1.17h0V536.9l-20.22-10.5V909.28c-4.54-.59-9.09-1.25-13.63-2.09V516.29L580,505.78V903.32q-10.77-2.39-21.27-5.26V485L431.6,551V839.21c-131.25-90-205-250.19-178.5-415.55-1.54,6.17-3,12.47-4.3,18.81-37.53,183.63,39.83,364,182.8,466.68a457.24,457.24,0,0,0,127.12,64q10.5,3.38,21.27,6.26c6.67,1.79,13.43,3.46,20.22,4.92,2.47.58,5,1.13,7.47,1.63a458.74,458.74,0,0,0,196.89-2.59h0q10.18-2.39,20.21-5.21h0q6.13-1.75,12.14-3.63a455,455,0,0,0,70-28.36c3.92-2,7.84-4,11.72-6.13s7.51-4.09,11.18-6.22c2.5-1.46,5-2.92,7.5-4.42,3.76-2.25,7.47-4.54,11.14-6.92,3.17-2,6.25-4,9.34-6.13q5.63-3.82,11.14-7.76a458.82,458.82,0,0,0,182.21-281.55C1202.15,377.91,1041.5,134.56,792.27,83.55Z"/></svg>